<?xml version="1.0" encoding="UTF-8" standalone="no" ?>
<!DOCTYPE svg PUBLIC "-//W3C//DTD SVG 1.1//EN" "http://www.w3.org/Graphics/SVG/1.1/DTD/svg11.dtd">
<svg xmlns="http://www.w3.org/2000/svg" xmlns:xlink="http://www.w3.org/1999/xlink" version="1.1" width="1080" height="1080" viewBox="0 0 1080 1080" xml:space="preserve">
<desc>Created with Fabric.js 5.2.4</desc>
<defs>
</defs>
<g transform="matrix(1 0 0 1 540 540)" id="a54157a0-d44b-4277-87ac-466760a9a098"  >
<rect style="stroke: none; stroke-width: 1; stroke-dasharray: none; stroke-linecap: butt; stroke-dashoffset: 0; stroke-linejoin: miter; stroke-miterlimit: 4; fill: rgb(255,255,255); fill-rule: nonzero; opacity: 1; visibility: hidden;" vector-effect="non-scaling-stroke"  x="-540" y="-540" rx="0" ry="0" width="1080" height="1080" />
</g>
<g transform="matrix(1 0 0 1 540 540)" id="e12ebe7b-c785-4785-87bd-8371a06b8ede"  >
</g>
<g transform="matrix(2.63 0 0 2.63 540 540)" id="SvgjsG3293"  >
<rect style="stroke: none; stroke-width: 1; stroke-dasharray: none; stroke-linecap: butt; stroke-dashoffset: 0; stroke-linejoin: miter; stroke-miterlimit: 4; fill: rgb(17,17,17); fill-rule: nonzero; opacity: 1;" vector-effect="non-scaling-stroke"  x="-41.5" y="-42" rx="0" ry="0" width="83" height="84" />
</g>
<g transform="matrix(3.24 0 0 3.24 539.58 539.78)" id="SvgjsG3294"  >
<path style="stroke: none; stroke-width: 1; stroke-dasharray: none; stroke-linecap: butt; stroke-dashoffset: 0; stroke-linejoin: miter; stroke-miterlimit: 4; fill: rgb(255,255,255); fill-rule: nonzero; opacity: 1;" vector-effect="non-scaling-stroke"  transform=" translate(-18.96, -38.73)" d="M 19.8 60.6 C 8.82 60.6 1.620000000000001 55.02 1.620000000000001 49.68 C 1.620000000000001 47.16 2.9400000000000013 45.42 5.940000000000001 45.42 C 12.420000000000002 45.480000000000004 11.220000000000002 56.64 20.22 56.64 C 23.7 56.64 25.919999999999998 54.78 25.919999999999998 51.66 C 25.919999999999998 39.959999999999994 2.3999999999999986 47.4 2.34 29.819999999999997 C 2.34 22.199999999999996 8.7 16.859999999999996 18.6 16.859999999999996 C 28.560000000000002 16.859999999999996 35.88 22.139999999999997 35.82 27.599999999999994 C 35.82 30.239999999999995 34.32 31.979999999999993 31.26 31.979999999999993 C 24 31.979999999999993 25.86 20.75999999999999 18.42 20.75999999999999 C 14.640000000000002 20.75999999999999 12.840000000000002 23.09999999999999 12.840000000000002 26.039999999999992 C 12.840000000000002 38.879999999999995 36.300000000000004 31.379999999999992 36.300000000000004 48.17999999999999 C 36.300000000000004 56.099999999999994 28.680000000000003 60.599999999999994 19.800000000000004 60.599999999999994 z" stroke-linecap="round" />
</g>
</svg>