<svg xmlns="http://www.w3.org/2000/svg" xmlns:xlink="http://www.w3.org/1999/xlink" version="1.1" width="600" height="150" viewBox="0 0 600 150" xml:space="preserve">
	<g transform="matrix(0.555 0 0 0.555 300 75)">
		<g style="" vector-effect="non-scaling-stroke">
			<g transform="matrix(2.63 0 0 2.63 -431.12 0)" id="svg_4">
				<rect style="stroke: none; stroke-width: 1; stroke-dasharray: none; stroke-linecap: butt; stroke-dashoffset: 0; stroke-linejoin: miter; stroke-miterlimit: 4; fill: rgb(17,17,17); fill-rule: nonzero; opacity: 1;" vector-effect="non-scaling-stroke"  x="-41.5" y="-42" rx="0" ry="0" width="83" height="84" />
			</g>
			<g transform="matrix(3.23 0 0 3.23 -431.54 -0.21)" id="svg_5">
				<path style="stroke: none; stroke-width: 1; stroke-dasharray: none; stroke-linecap: butt; stroke-dashoffset: 0; stroke-linejoin: miter; stroke-miterlimit: 4; fill: rgb(255,255,255); fill-rule: nonzero; opacity: 1;" vector-effect="non-scaling-stroke"  transform=" translate(-18.96, -38.73)" d="M 19.8 60.6 C 8.82 60.6 1.620000000000001 55.02 1.620000000000001 49.68 C 1.620000000000001 47.16 2.9400000000000013 45.42 5.940000000000001 45.42 C 12.420000000000002 45.480000000000004 11.220000000000002 56.64 20.22 56.64 C 23.7 56.64 25.919999999999998 54.78 25.919999999999998 51.66 C 25.919999999999998 39.959999999999994 2.3999999999999986 47.4 2.34 29.819999999999997 C 2.34 22.199999999999996 8.7 16.859999999999996 18.6 16.859999999999996 C 28.560000000000002 16.859999999999996 35.88 22.139999999999997 35.82 27.599999999999994 C 35.82 30.239999999999995 34.32 31.979999999999993 31.26 31.979999999999993 C 24 31.979999999999993 25.86 20.75999999999999 18.42 20.75999999999999 C 14.640000000000002 20.75999999999999 12.840000000000002 23.09999999999999 12.840000000000002 26.039999999999992 C 12.840000000000002 38.879999999999995 36.300000000000004 31.379999999999992 36.300000000000004 48.17999999999999 C 36.300000000000004 56.099999999999994 28.680000000000003 60.599999999999994 19.800000000000004 60.599999999999994 z" stroke-linecap="round" />
			</g>
			<g transform="matrix(3.05 0 0 3.05 134.75 -0.5)" id="svg_6">
				<path style="stroke: none; stroke-width: 1; stroke-dasharray: none; stroke-linecap: butt; stroke-dashoffset: 0; stroke-linejoin: miter; stroke-miterlimit: 4; fill: rgb(17,17,17); fill-rule: nonzero; opacity: 1;" vector-effect="non-scaling-stroke"  transform=" translate(-134.32, -26.06)" d="M 11 11.52 C 15.36 11.52 18.56 14.399999999999999 19.759999999999998 17.4 L 17.24 18.759999999999998 C 15.959999999999999 16.2 13.919999999999998 14.519999999999998 10.999999999999998 14.519999999999998 C 7.919999999999998 14.519999999999998 5.799999999999998 16.279999999999998 5.799999999999998 18.72 C 5.799999999999998 21 7.239999999999998 22.439999999999998 10.279999999999998 23.599999999999998 L 12.319999999999997 24.36 C 17.359999999999996 26.24 20.519999999999996 28.4 20.519999999999996 32.84 C 20.519999999999996 37.64 15.919999999999996 40.6 11.159999999999997 40.6 C 6.399999999999997 40.6 2.479999999999997 37.72 1.3999999999999968 33.72 L 4.0799999999999965 32.44 C 5.0399999999999965 35.4 7.559999999999997 37.559999999999995 11.159999999999997 37.559999999999995 C 14.359999999999996 37.559999999999995 17.08 35.71999999999999 17.08 32.879999999999995 C 17.08 29.679999999999996 14.839999999999998 28.479999999999997 11.52 27.199999999999996 L 9.44 26.399999999999995 C 5.199999999999999 24.799999999999994 2.4799999999999995 22.599999999999994 2.4799999999999995 18.639999999999993 C 2.4799999999999995 14.559999999999993 6.08 11.519999999999992 11 11.519999999999992 z M 33.44 12 C 39.72 12 43.36 15.84 43.36 21.04 C 43.36 26.24 39.72 29.92 33.44 29.92 L 27.639999999999997 29.92 L 27.639999999999997 40 L 24.319999999999997 40 L 24.319999999999997 12 L 33.44 12 z M 33.36 26.96 C 37.4 26.96 40.04 24.880000000000003 40.04 21.04 C 40.04 17.16 37.4 15.12 33.36 15.12 L 27.64 15.12 L 27.64 26.96 L 33.36 26.96 z M 69.8 40 L 66.92 33.4 L 51.96 33.4 L 49.08 40 L 45.559999999999995 40 L 58.03999999999999 12 L 60.79999999999999 12 L 73.32 40 L 69.8 40 z M 53.199999999999996 30.6 L 65.67999999999999 30.6 L 59.43999999999999 16.36 L 53.19999999999999 30.6 z M 99.63999999999999 37 C 97.07999999999998 39.2 93.83999999999999 40.4 90.23999999999998 40.4 C 82.95999999999998 40.4 75.91999999999999 34.48 75.91999999999999 26 C 75.91999999999999 17.52 82.96 11.6 90.23999999999998 11.6 C 93.79999999999998 11.6 96.99999999999999 12.799999999999999 99.51999999999998 14.92 L 97.47999999999998 17.24 C 95.51999999999998 15.679999999999998 92.99999999999997 14.759999999999998 90.47999999999998 14.759999999999998 C 84.75999999999998 14.759999999999998 79.35999999999997 19.4 79.35999999999997 26 C 79.35999999999997 32.6 84.75999999999998 37.24 90.47999999999998 37.24 C 93.03999999999998 37.24 95.59999999999998 36.28 97.55999999999997 34.68 L 99.63999999999997 37 z M 106.75999999999999 36.88 L 120.07999999999998 36.88 L 120.07999999999998 40 L 105.95999999999998 40 L 103.43999999999998 40 L 103.43999999999998 12 L 106.75999999999998 12 L 119.71999999999997 12 L 119.71999999999997 15.120000000000001 L 106.75999999999996 15.120000000000001 L 106.75999999999996 24.4 L 116.83999999999996 24.4 L 116.83999999999996 27.439999999999998 L 106.75999999999996 27.439999999999998 L 106.75999999999996 36.879999999999995 z M 144.6 12.000000000000004 C 152.76 12.000000000000004 158.76 18.200000000000003 158.76 26.000000000000004 C 158.76 33.800000000000004 152.76 40 144.6 40 L 136.28 40 L 136.28 12 L 144.6 12 z M 144.56 36.84 C 151.24 36.84 155.36 32 155.36 26.000000000000004 C 155.36 20.000000000000004 151.24 15.160000000000004 144.56 15.160000000000004 L 139.6 15.160000000000004 L 139.6 36.84 L 144.56 36.84 z M 166.08 36.88 L 179.4 36.88 L 179.4 40 L 165.28 40 L 162.76 40 L 162.76 12 L 166.07999999999998 12 L 179.04 12 L 179.04 15.120000000000001 L 166.07999999999998 15.120000000000001 L 166.07999999999998 24.4 L 176.16 24.4 L 176.16 27.439999999999998 L 166.07999999999998 27.439999999999998 L 166.07999999999998 36.879999999999995 z M 192.20000000000002 11.520000000000003 C 196.56000000000003 11.520000000000003 199.76000000000002 14.400000000000002 200.96 17.400000000000002 L 198.44 18.76 C 197.16 16.200000000000003 195.12 14.520000000000001 192.2 14.520000000000001 C 189.11999999999998 14.520000000000001 187 16.28 187 18.720000000000002 C 187 21.000000000000004 188.44 22.44 191.48 23.6 L 193.51999999999998 24.360000000000003 C 198.55999999999997 26.240000000000002 201.71999999999997 28.400000000000002 201.71999999999997 32.84 C 201.71999999999997 37.64 197.11999999999998 40.6 192.35999999999996 40.6 C 187.59999999999997 40.6 183.67999999999995 37.72 182.59999999999997 33.72 L 185.27999999999997 32.44 C 186.23999999999998 35.4 188.75999999999996 37.559999999999995 192.35999999999999 37.559999999999995 C 195.55999999999997 37.559999999999995 198.27999999999997 35.71999999999999 198.27999999999997 32.879999999999995 C 198.27999999999997 29.679999999999996 196.03999999999996 28.479999999999997 192.71999999999997 27.199999999999996 L 190.63999999999996 26.399999999999995 C 186.39999999999995 24.799999999999994 183.67999999999995 22.599999999999994 183.67999999999995 18.639999999999993 C 183.67999999999995 14.559999999999993 187.27999999999994 11.519999999999992 192.19999999999996 11.519999999999992 z M 208.84000000000003 12.000000000000004 L 208.84000000000003 40 L 205.52000000000004 40 L 205.52000000000004 12 L 208.84000000000003 12 z M 240.16000000000003 25.92 C 240.76000000000002 34.88 234.64000000000001 40.400000000000006 227.36 40.400000000000006 C 219.88000000000002 40.400000000000006 213.04000000000002 34.480000000000004 213.04000000000002 26.000000000000007 C 213.04000000000002 17.520000000000007 220.04000000000002 11.600000000000007 227.36 11.600000000000007 C 230.88000000000002 11.600000000000007 234.08 12.800000000000006 236.60000000000002 14.920000000000007 L 234.56000000000003 17.240000000000006 C 232.60000000000002 15.680000000000005 230.08000000000004 14.760000000000005 227.56000000000003 14.760000000000005 C 221.84000000000003 14.760000000000005 216.48000000000002 19.400000000000006 216.48000000000002 26.000000000000007 C 216.48000000000002 32.60000000000001 221.68 37.24000000000001 227.36 37.24000000000001 C 232.32000000000002 37.24000000000001 236.28 34.56000000000001 237.04000000000002 28.80000000000001 L 228.88000000000002 28.80000000000001 L 228.88000000000002 25.920000000000012 L 240.16000000000003 25.920000000000012 z M 263.92 12.000000000000002 L 267.24 12.000000000000002 L 267.24 40 L 264.68 40 L 247.72 18.08 L 247.72 40 L 244.4 40 L 244.4 12 L 246.96 12 L 263.92 33.96 L 263.92 12 z" stroke-linecap="round" />
			</g>
		</g>
	</g>
</svg>