<?xml version="1.0" encoding="UTF-8" standalone="no" ?>
<!DOCTYPE svg PUBLIC "-//W3C//DTD SVG 1.1//EN" "http://www.w3.org/Graphics/SVG/1.1/DTD/svg11.dtd">
<svg xmlns="http://www.w3.org/2000/svg" xmlns:xlink="http://www.w3.org/1999/xlink" version="1.1" width="400" height="400" viewBox="0 0 400 400" xml:space="preserve">
<desc>Created with Fabric.js 5.2.4</desc>
<defs>
</defs>
<g transform="matrix(1 0 0 1 200 200)" id="4476f3c6-ab10-4124-ba88-c6c60a3cdd79"  >
<rect style="stroke: none; stroke-width: 1; stroke-dasharray: none; stroke-linecap: butt; stroke-dashoffset: 0; stroke-linejoin: miter; stroke-miterlimit: 4; fill: rgb(255,255,255); fill-rule: nonzero; opacity: 1; visibility: hidden;" vector-effect="non-scaling-stroke"  x="-200" y="-200" rx="0" ry="0" width="400" height="400" />
</g>
<g transform="matrix(Infinity NaN NaN Infinity 0 0)" id="da973f01-3522-4d1e-b33f-ee452274370e"  >
</g>
<g transform="matrix(0.37 0 0 0.37 200 200)"  >
<g style="" vector-effect="non-scaling-stroke"   >
		<g transform="matrix(3.07 0 0 3.07 0 0)"  >
<path style="stroke: none; stroke-width: 1; stroke-dasharray: none; stroke-linecap: butt; stroke-dashoffset: 0; stroke-linejoin: miter; stroke-miterlimit: 4; fill: rgb(17,17,17); fill-rule: nonzero; opacity: 1;" vector-effect="non-scaling-stroke"  transform=" translate(-50.91, -50.55)" d="M 101.8 83.6 L 101.6 54.099999999999994 C 101.6 48.099999999999994 101.69999999999999 41.89999999999999 101.39999999999999 36.099999999999994 C 101.3 33.599999999999994 101.3 30.999999999999993 101.3 28.299999999999994 C 101.3 23.599999999999994 101.2 19.299999999999994 100.89999999999999 15.099999999999994 L 100.69999999999999 10.899999999999995 C 100.6 8.199999999999996 100.49999999999999 5.599999999999995 100.39999999999999 2.899999999999995 L 100.39999999999999 1 L 93.1 1 L 77.2 0.7 L 66.6 0.7 C 64.75041748311558 0.7015047231802639 62.90640158780349 0.9026700935779478 61.099999999999994 1.3000000000000014 L 60.49999999999999 1.5999999999999999 L 49.8 1.5999999999999999 C 49.699999999999996 1.4 49 1.2999999999999998 47.599999999999994 1.1999999999999997 L 34.3 0.3 C 28.039079058326408 -0.11869553575032471 21.75611258509337 -0.0852755013182444 15.499999999999929 0.3999999999999943 C 12.3 0.6 9 0.8 4.6 0.9 L 1.5 0.5 L 0.4 0.5 L 0.4 1.7 C 0.2 3.7 0.10000000000000003 6 0.10000000000000003 8.7 C 0.10000000000000003 11.399999999999999 0.10000000000000003 15.5 2.7755575615628914e-17 18.9 C -0.09999999999999998 22.299999999999997 2.7755575615628914e-17 24.2 2.7755575615628914e-17 26.9 C -0.055556657375653726 29.20706814787997 0.07822525499744618 31.514806136315883 0.4000000000000057 33.80000000000002 C 0.5693765644481759 34.758226998458404 0.669635063398961 35.72739248831602 0.6999999999999972 36.69999999999999 C 0.7999999999999999 40.49999999999999 1.1 41.49999999999999 1.5 42.199999999999996 L 1.5 59.8 L 1.3 60.3 C 1.4000000000000001 64.3 1.2 67.89999999999999 1.1 71.6 C 0.8 79 0.7000000000000001 86.6 1 94.1 C 1.0081636788739734 95.74564079995776 1.17561125681173 97.38662706374777 1.5 99 L 1.5 99.8 L 6 99.8 L 5.8 100 L 11.2 100 C 14.072816832925138 99.89070188290613 16.949731365025997 100.02451186114338 19.799999999999947 100.4 C 21.055021108586622 100.61444445337428 22.32687637564272 100.71485407972081 23.600000000000005 100.7 C 30.199999999999996 100.60000000000001 36.3 100.8 42.5 101.10000000000001 L 49.2 101.10000000000001 L 63.1 100.80000000000001 C 69.2 100.70000000000002 75 100.30000000000001 81.4 100.30000000000001 L 91.10000000000001 100.30000000000001 L 94.60000000000001 100.10000000000001 L 97.4 99.60000000000001 L 99.7 99.60000000000001 L 99.7 98.60000000000001 C 100 100.2 100.3 100.00000000000001 100.7 97.80000000000001 C 100.8 97.20000000000002 100.9 96.50000000000001 101 95.80000000000001 C 101.1 95.10000000000001 101.3 93.20000000000002 101.5 92.4 C 101.85201852207635 89.4806855176022 101.95238813640584 86.536510163937 101.8 83.60000000000002 z" stroke-linecap="round" />
</g>
		<g transform="matrix(2.77 0 0 2.77 0.08 -19.1)"  >
<path style="stroke: none; stroke-width: 1; stroke-dasharray: none; stroke-linecap: butt; stroke-dashoffset: 0; stroke-linejoin: round; stroke-miterlimit: 4; fill: rgb(255,255,255); fill-rule: nonzero; opacity: 1;"  transform=" translate(-16, -16)" d="M 4.23452 5.59361 C 4.07965 5.68301 3.98432 5.84836 3.98452 6.0272 L 3.98452 22.65026 C 3.98502 22.8284 4.08022 22.99282 4.23452 23.0819 L 18.6271 31.39245 C 18.781799999999997 31.48175 18.9724 31.48175 19.1271 31.39245 L 27.76382 26.40612 C 27.91809 26.317020000000003 28.01332 26.152620000000002 28.01382 25.97448 L 28.01382 9.39245 C 28.029619999999998 9.19915 27.932119999999998 9.01418 27.76382 8.91784 L 13.36929 0.60729 C 13.29669 0.56559 13.214739999999999 0.54269 13.12704 0.54069 C 13.03934 0.53869 12.948789999999999 0.56159 12.90904 0.58439 z M 13.11931 1.61901 L 26.51189 9.35143 L 18.87712 13.76159 L 5.48454 6.02721 Z M 13.13101 2.5350200000000003 C 13.03931 2.5330200000000005 12.94879 2.5557200000000004 12.86929 2.60142 L 7.68765 5.59361 C 7.35305 5.78584 7.35305 6.26856 7.68765 6.46079 L 18.6271 12.7772 C 18.781799999999997 12.8665 18.9724 12.8665 19.1271 12.7772 L 24.30874 9.78501 C 24.643340000000002 9.59278 24.643340000000002 9.110059999999999 24.30874 8.91783 L 13.36929 2.60142 C 13.29669 2.55972 13.214739999999999 2.53682 13.13101 2.5350200000000003 z M 13.11931 3.61315 L 23.05876 9.35143 L 22.3322 9.77135 L 13.36931 4.59752 C 13.28241 4.54702 13.182400000000001 4.52392 13.0822 4.5311200000000005 C 12.9986 4.53812 12.91799 4.565320000000001 12.84782 4.61122 L 9.66618 6.44715 L 8.93767 6.02723 Z M 12.61931 5.89635 L 12.61931 8.15221 L 11.89275 7.73229 L 11.89275 6.31627 Z M 13.61931 5.89635 L 14.34782 6.31627 L 14.34782 9.15026 L 13.61931 8.73034 Z M 10.89275 6.89245 L 10.89275 7.15612 L 10.66423 7.0233 Z M 4.984539999999999 6.89445 L 18.377119999999998 14.62687 L 18.377119999999998 18.12687 L 17.65056 17.70695 L 17.65056 15.335849999999999 C 17.65076 15.15701 17.55546 14.991689999999998 17.40056 14.902259999999998 L 6.46111 8.58585 C 6.38851 8.54415 6.306559999999999 8.52125 6.22282 8.51945 C 5.94213 8.512450000000001 5.71106 8.73868 5.71111 9.01945 L 5.71111 19.65812 C 5.71211 20.042370000000002 6.128299999999999 20.28183 6.46111 20.089760000000002 L 11.64275 17.09757 C 11.79702 17.008470000000003 11.892249999999999 16.844070000000002 11.89275 16.66593 L 11.89275 12.87882 L 12.619309999999999 13.29875 L 12.619309999999999 17.37492 L 4.984539999999999 21.78312 z M 15.347819999999999 6.89445 L 21.3322 10.347570000000001 L 18.87712 11.765540000000001 L 15.347820000000002 9.728430000000001 z M 6.711109999999998 9.88664 L 7.437669999999998 10.30656 L 7.437669999999998 18.37101 L 6.711109999999998 18.79093 z M 27.01384 10.21867 L 27.01384 25.10734 L 13.61931 17.37492 L 13.61931 13.87687 L 14.34782 14.29679 L 14.34782 16.66593 C 14.348320000000001 16.84407 14.443520000000001 17.00849 14.59782 17.09757 L 25.53532 23.413980000000002 C 25.868129999999997 23.606050000000003 26.2842 23.366580000000003 26.28532 22.98234 L 26.28532 12.34367 C 26.2854 12.062109999999999 26.053099999999997 11.836 25.771649999999998 11.84367 C 25.688549999999996 11.84567 25.607359999999996 11.86867 25.53532 11.91007 L 20.353679999999997 14.902259999999998 C 20.198809999999998 14.991659999999998 20.103479999999998 15.157009999999998 20.103679999999997 15.335849999999999 L 20.103679999999997 19.12296 L 19.377119999999998 18.703039999999998 L 19.377119999999998 14.626869999999997 z M 8.437669999999997 10.882729999999999 L 10.892749999999998 12.300699999999999 L 10.892749999999998 16.37687 L 8.437669999999997 17.79484 z M 25.28532 13.210849999999999 L 25.28532 22.11515 L 24.55876 21.69523 L 24.55876 13.630779999999998 z M 23.55876 14.206949999999999 L 23.55876 21.119059999999998 L 21.10368 19.701089999999997 L 21.10368 15.624919999999996 z M 15.347819999999999 14.872959999999999 L 16.65056 15.62492 L 16.65056 17.12882 L 15.347819999999999 16.37687 z M 13.119309999999999 18.24015 L 26.51384 25.97453 L 18.877119999999998 30.382730000000002 L 5.484539999999997 22.65031 z M 13.082209999999998 19.15812 C 13.007109999999997 19.16412 12.934379999999997 19.18662 12.869319999999998 19.224520000000002 L 7.68768 22.2167 C 7.355320000000001 22.40936 7.355320000000001 22.88928 7.68768 23.08194 L 18.62713 29.398339999999997 C 18.78183 29.48764 18.972430000000003 29.48764 19.12713 29.398339999999997 L 24.308770000000003 26.406159999999996 C 24.641130000000004 26.213499999999996 24.641130000000004 25.733579999999996 24.308770000000003 25.540919999999996 L 13.369320000000002 19.22452 C 13.282420000000002 19.17402 13.182410000000003 19.15092 13.082210000000002 19.158119999999997 z M 13.119309999999999 20.23429 L 16.65056 22.27335 L 16.65056 25.10929 L 10.66423 21.65031 z M 9.664229999999998 22.228430000000003 L 18.377119999999998 27.259680000000003 L 18.377119999999998 28.09953 L 8.93767 22.64835 Z M 17.65056 22.851480000000002 L 18.377119999999998 23.271400000000003 L 18.377119999999998 26.105390000000003 L 17.65056 25.685460000000003 z M 19.377119999999998 23.84757 L 20.103679999999997 24.267500000000002 L 20.103679999999997 25.685460000000003 L 19.377119999999998 26.105390000000003 z M 21.103679999999997 24.84562 L 21.330249999999996 24.97648 L 21.103679999999997 25.107339999999997 z M 22.332199999999997 25.55461 L 23.058759999999996 25.97453 L 19.377119999999998 28.09953 L 19.377119999999998 27.259680000000003 z" stroke-linecap="round" />
</g>
		<g transform="matrix(0.6 0 0 0.6 -0.25 52.35)"  >
<path style="stroke: none; stroke-width: 1; stroke-dasharray: none; stroke-linecap: butt; stroke-dashoffset: 0; stroke-linejoin: miter; stroke-miterlimit: 4; fill: rgb(255,255,255); fill-rule: nonzero; opacity: 1;" vector-effect="non-scaling-stroke"  transform=" translate(-169.95, -26.01)" d="M 23.564 12.02 L 24.39623 12.02 L 13.40223 40.019999999999996 L 2.00023 12.019999999999996 L 2.84023 12.019999999999996 L 10.49743 30.829999999999995 C 12.259129999999999 30.444999999999993 14.12183 30.437229999999996 15.87583 30.822226399999995 C 15.96915 30.841679399999993 16.058600000000002 30.868906399999993 16.15192 30.888358399999994 z M 13.387 37.9272 L 15.8642 31.6196 C 15.813652000000001 31.60792 15.763110000000001 31.596241 15.70865 31.584560999999997 C 14.10645 31.230650999999998 12.40695 31.226750999999997 10.79705 31.561201999999998 z M 43.06100000000001 12 C 50.781000000000006 12 57.06100000000001 18.2804 57.06100000000001 26 C 57.06100000000001 33.7196 50.781000000000006 40 43.06100000000001 40 C 35.34100000000001 40 29.061000000000007 33.7196 29.061000000000007 26 C 29.061000000000007 18.2804 35.34100000000001 12 43.06100000000001 12 z M 32.9962 34.5928 L 32.9962 17.406799999999997 C 31.017100000000003 19.721799999999998 29.817800000000002 22.722399999999997 29.817800000000002 25.999599999999997 C 29.817800000000002 29.276799999999998 31.016800000000003 32.27719999999999 32.9962 34.5924 z M 43.06100000000001 39.24328 C 50.36300000000001 39.24328 56.30400000000001 33.30208 56.30400000000001 26.000279999999997 C 56.30400000000001 18.698479999999996 50.36280000000001 12.757279999999996 43.06100000000001 12.757279999999996 C 39.43540000000001 12.757279999999996 36.147000000000006 14.222679999999997 33.75300000000001 16.590979999999995 L 33.75300000000001 35.40997999999999 C 36.147000000000006 37.77827999999999 39.43580000000001 39.24367999999999 43.06100000000001 39.24367999999999 z M 81.171 25.622 L 89.7222 25.621960938 L 89.7222 26.000360938 C 89.7222 33.720360938 83.4418 40.000360938 75.7222 40.000360938 C 68.0026 40.000360938 61.7222 33.720360938 61.7222 26.000360938 C 61.7222 18.280360938 68.0026 12.000360938 75.7222 12.000360938 C 78.7793 12.000360938 81.6838 12.967920938 84.1222 14.799160938 L 83.66760000000001 15.404280938 C 81.3619 13.672580938 78.6144 12.757080938 75.7228 12.757080938 C 71.3048 12.757080938 67.3876 14.934080938 64.9808 18.269080938 C 66.63550000000001 20.381580938 67.5455 23.006680938 67.5455 25.698280937999996 C 67.5455 28.514580937999995 66.55342 31.252280938 64.75330000000001 33.411880937999996 C 67.13680000000001 36.927780938 71.1641 39.243080938 75.72330000000001 39.243080938 C 82.89930000000001 39.243080938 88.76030000000002 33.506680938 88.96130000000001 26.378080937999997 L 81.1722 26.378080937999997 L 81.1722 25.621320937999997 z M 62.47870000000001 26 C 62.47870000000001 28.4578 63.15426000000001 30.759999999999998 64.32600000000001 32.7352 C 65.91420000000001 30.7422 66.78800000000001 28.2556 66.78800000000001 25.6984 C 66.78800000000001 23.258499999999998 65.983 20.8812 64.52820000000001 18.936799999999998 C 63.23240000000001 20.982699999999998 62.478800000000014 23.4044 62.478800000000014 26 z M 110.72900000000001 12.02 L 111.48619000000001 12.02 L 111.48619000000001 31.469 C 111.48619000000001 36.184200000000004 107.64979000000001 40.0202 102.93459000000001 40.0202 C 98.21939000000002 40.0202 94.38339000000002 36.184200000000004 94.38339000000002 31.469 L 94.38339000000002 12.02 L 99.07499000000001 12.02 L 99.07499000000001 38.230999999999995 C 100.21409000000001 38.883919999999996 101.52969000000002 39.262699999999995 102.93429000000002 39.262699999999995 C 107.23269000000002 39.262699999999995 110.72909000000001 35.7662 110.72909000000001 31.468299999999996 L 110.72909000000001 12.019299999999994 z M 95.13940000000001 31.468 C 95.13940000000001 34.037 96.3944 36.3132 98.3174 37.734 L 98.3174 12.776000000000003 L 95.13940000000001 12.776000000000003 L 95.13940000000001 31.468000000000004 z M 130.16400000000002 12.757000000000001 L 120.92050000000002 12.757000000000001 L 120.92050000000002 25.092000000000002 L 130.16400000000002 25.092000000000002 L 130.16400000000002 25.848760000000002 L 120.92050000000002 25.848760000000002 L 120.92050000000002 39.24376 L 130.16400000000002 39.24376 L 130.16400000000002 40.00056 L 116.16400000000002 40.00056 L 116.16400000000002 12.00056 L 130.16400000000002 12.00056 L 130.16400000000002 12.75736 z M 120.16360000000002 39.24324 L 120.16360000000002 12.75724 L 116.92070000000001 12.75724 L 116.92070000000001 39.24324 L 120.16360000000002 39.24324 z M 157.78400000000002 12.757000000000001 L 152.7136 12.756960938 L 152.7136 39.242960938 L 157.78400000000002 39.242960938 L 157.78400000000002 39.999760938 L 146.88700000000003 39.999760938 L 146.88700000000003 39.243000938 L 151.95740000000004 39.243000938 L 151.95740000000004 12.757000938000001 L 146.88700000000003 12.757000938000001 L 146.88700000000003 12.000200938 L 157.78400000000002 12.000200938 L 157.78400000000002 12.757000938000001 z M 178.929 12 L 179.64884 12 L 179.64884 40 L 163.18684000000002 20.38 L 163.18684000000002 39.998999999999995 L 162.46660000000003 39.998999999999995 L 162.46660000000003 11.998999999999995 L 178.92860000000002 31.720999999999997 L 178.92860000000002 11.998999999999995 z M 178.929 37.9338 L 178.92860938 32.885799999999996 L 163.18660938000002 14.077799999999996 L 163.18660938000002 19.222399999999997 z M 184.328 12.02 L 203.951 12.019960937999999 L 203.951 12.776760937999999 L 196.4793 12.776760937999999 L 196.4793 40.019760938 L 191.7998 40.019760938 L 191.7998 12.776760937999999 L 184.3281 12.776760937999999 L 184.3281 12.020000937999999 z M 195.724 39.26256 L 195.724 12.77656 L 192.55419999999998 12.77656 L 192.55419999999998 39.26256 L 195.724 39.26256 z M 222.62900000000002 12.757000000000001 L 213.3855 12.757000000000001 L 213.3855 25.092000000000002 L 222.62900000000002 25.092000000000002 L 222.62900000000002 25.848760000000002 L 213.3855 25.848760000000002 L 213.3855 39.24376 L 222.62900000000002 39.24376 L 222.62900000000002 40.00056 L 208.62900000000002 40.00056 L 208.62900000000002 12.00056 L 222.62900000000002 12.00056 L 222.62900000000002 12.75736 z M 212.6286 39.24324 L 212.6286 12.75724 L 209.3857 12.75724 L 209.3857 39.24324 L 212.6286 39.24324 z M 233.66760000000002 28.82 L 233.66760000000002 12.798000000000002 L 230.40090000000004 12.798000000000002 L 230.40090000000004 28.82 L 233.66760000000005 28.82 z M 234.4456 12.797 L 234.4456 28.819 L 236.85670000000002 28.819 C 241.2743 28.819 244.86790000000002 25.2257 244.86790000000002 20.8078 C 244.86790000000002 16.3899 241.27460000000002 12.7966 236.85670000000002 12.7966 L 234.4456 12.7966 z M 230.40120000000002 40.019375 L 229.6234 40.019414061999996 L 229.6234 12.797414061999994 L 227.2901 12.797414061999994 L 227.2901 12.019644061999994 L 236.8568 12.019644061999994 C 241.70239999999998 12.019644061999994 245.6456 15.962944061999995 245.6456 20.808444061999992 C 245.6456 25.65394406199999 241.7023 29.597244061999994 236.8568 29.597244061999994 L 234.9979 29.597244061999994 L 245.43189999999998 40.019244062 L 244.32739999999998 40.019244062 L 233.89739999999998 29.597244061999998 L 230.40129999999996 29.597244061999998 L 230.40129999999996 40.019244062 z M 261.20900000000006 12.757000000000001 L 256.13860000000005 12.756960938 L 256.13860000000005 39.242960938 L 261.20900000000006 39.242960938 L 261.20900000000006 39.999760938 L 250.31200000000007 39.999760938 L 250.31200000000007 39.243000938 L 255.38240000000008 39.243000938 L 255.38240000000008 12.757000938000001 L 250.31200000000007 12.757000938000001 L 250.31200000000007 12.000200938 L 261.20900000000006 12.000200938 L 261.20900000000006 12.757000938000001 z M 279.89200000000005 12 C 287.6120000000001 12 293.89200000000005 18.2804 293.89200000000005 26 C 293.89200000000005 33.7196 287.6120000000001 40 279.89200000000005 40 C 272.172 40 265.89200000000005 33.7196 265.89200000000005 26 C 265.89200000000005 18.2804 272.172 12 279.89200000000005 12 z M 269.82720000000006 34.5928 L 269.82720000000006 17.406799999999997 C 267.84810000000004 19.721799999999998 266.64880000000005 22.722399999999997 266.64880000000005 25.999599999999997 C 266.64880000000005 29.276799999999998 267.84780000000006 32.27719999999999 269.82720000000006 34.5924 z M 279.89200000000005 39.24328 C 287.1940000000001 39.24328 293.13500000000005 33.30208 293.13500000000005 26.000279999999997 C 293.13500000000005 18.698479999999996 287.19380000000007 12.757279999999996 279.89200000000005 12.757279999999996 C 276.26640000000003 12.757279999999996 272.97800000000007 14.222679999999997 270.58400000000006 16.590979999999995 L 270.58400000000006 35.40997999999999 C 272.97800000000007 37.77827999999999 276.26680000000005 39.24367999999999 279.89200000000005 39.24367999999999 z M 304.9306 28.82 L 304.9306 12.798000000000002 L 301.6639 12.798000000000002 L 301.6639 28.82 L 304.9306 28.82 z M 305.70860000000005 12.797 L 305.70860000000005 28.819 L 308.1197 28.819 C 312.5373 28.819 316.1309 25.2257 316.1309 20.8078 C 316.1309 16.3899 312.5376 12.7966 308.1197 12.7966 L 305.70860000000005 12.7966 z M 301.66420000000005 40.019375 L 300.88640000000004 40.019414061999996 L 300.88640000000004 12.797414061999994 L 298.55310000000003 12.797414061999994 L 298.55310000000003 12.019644061999994 L 308.11980000000005 12.019644061999994 C 312.96540000000005 12.019644061999994 316.90860000000004 15.962944061999995 316.90860000000004 20.808444061999992 C 316.90860000000004 25.65394406199999 312.9653 29.597244061999994 308.11980000000005 29.597244061999994 L 306.26090000000005 29.597244061999994 L 316.6949000000001 40.019244062 L 315.5904000000001 40.019244062 L 305.1604000000001 29.597244061999998 L 301.6643000000001 29.597244061999998 L 301.6643000000001 40.019244062 z M 329.73600000000005 12.776 C 327.08810000000005 12.776 324.76680000000005 14.1776 323.45720000000006 16.273699999999998 L 337.89820000000003 27.1547 L 337.89820000000003 31.5433 L 337.73254000000003 31.5433 L 337.89820000000003 31.667749999999998 L 337.89820000000003 31.85673 C 337.89820000000003 36.35753 334.2364 40.01873 329.73580000000004 40.01873 C 325.2352000000001 40.01873 321.57380000000006 36.35733 321.57380000000006 31.85673 L 322.33060000000006 31.85673 C 322.33060000000006 35.93993 325.6525000000001 39.26193 329.73580000000004 39.26193 C 333.75700000000006 39.26193 337.03940000000006 36.04113 337.1394 32.04433 L 321.57340000000005 20.370330000000003 L 321.57340000000005 20.181350000000002 C 321.57340000000005 15.680550000000002 325.23480000000006 12.019350000000001 329.7354 12.019350000000001 C 334.236 12.019350000000001 337.8978 15.680750000000002 337.8978 20.181350000000002 L 337.141 20.181350000000002 C 337.141 16.098150000000004 333.81870000000004 12.776150000000001 329.7354 12.776150000000001 z M 337.14200000000005 27.532 L 323.08600000000007 16.941000000000003 C 322.63256000000007 17.868520000000004 322.35996000000006 18.899800000000003 322.33272000000005 19.9934 L 337.1417200000001 31.1004 L 337.1417200000001 27.5324 z" stroke-linecap="round" />
</g>
</g>
</g>
<g transform="matrix(NaN NaN NaN NaN 0 0)"  >
<g style=""   >
</g>
</g>
<g transform="matrix(NaN NaN NaN NaN 0 0)"  >
<g style=""   >
</g>
</g>
</svg>