<?xml version="1.0" encoding="UTF-8" standalone="no" ?>
<!DOCTYPE svg PUBLIC "-//W3C//DTD SVG 1.1//EN" "http://www.w3.org/Graphics/SVG/1.1/DTD/svg11.dtd">
<svg xmlns="http://www.w3.org/2000/svg" xmlns:xlink="http://www.w3.org/1999/xlink" version="1.1" width="400" height="400" viewBox="0 0 400 400" xml:space="preserve">
<desc>Created with Fabric.js 5.2.4</desc>
<defs>
</defs>
<g transform="matrix(1 0 0 1 200 200)" id="55fdd651-3fd2-40c4-a225-c618013bc11d"  >
<rect style="stroke: none; stroke-width: 1; stroke-dasharray: none; stroke-linecap: butt; stroke-dashoffset: 0; stroke-linejoin: miter; stroke-miterlimit: 4; fill: rgb(255,255,255); fill-rule: nonzero; opacity: 1; visibility: hidden;" vector-effect="non-scaling-stroke"  x="-200" y="-200" rx="0" ry="0" width="400" height="400" />
</g>
<g transform="matrix(Infinity NaN NaN Infinity 0 0)" id="a3098743-12e5-4536-8cc5-6c2b60fb9184"  >
</g>
<g transform="matrix(0.37 0 0 0.37 200 200)"  >
<g style="" vector-effect="non-scaling-stroke"   >
		<g transform="matrix(1.64 0 0 1.64 0 -54.26)"  >
<path style="stroke: none; stroke-width: 1; stroke-dasharray: none; stroke-linecap: butt; stroke-dashoffset: 0; stroke-linejoin: miter; stroke-miterlimit: 4; fill: rgb(17,17,17); fill-rule: nonzero; opacity: 1;" vector-effect="non-scaling-stroke"  transform=" translate(-51.44, -50)" d="M 92.139 54.505 C 85.312 44.228 76.93599999999999 49.859 65.815 52.534000000000006 C 54.693999999999996 55.20700000000001 57.367999999999995 37.75200000000001 67.363 22.267000000000007 C 77.357 6.782000000000007 67.575 1.151000000000007 60.043 6.218000000000007 C 55.053 9.575000000000006 29.983 20.889000000000006 25.552999999999997 10.019000000000007 C 24.385999999999996 7.155000000000007 23.246999999999996 4.0890000000000075 21.416999999999998 2.2590000000000074 C 21.028 1.8690000000000073 20.854 2.1180000000000074 20.985999999999997 2.5450000000000075 C 21.255999999999997 3.4200000000000075 21.47 4.096000000000007 21.858999999999998 5.763000000000007 C 22.269 7.425000000000007 22.711 9.456000000000007 23.151 11.801000000000007 C 23.608 14.144000000000007 24.012 16.806000000000008 24.361 19.72500000000001 C 24.69 22.64400000000001 25.004 25.81800000000001 25.138 29.18500000000001 C 25.238000000000003 30.86800000000001 25.271 32.59900000000001 25.314 34.36800000000001 C 25.348 35.25300000000001 25.33 36.14800000000001 25.322 37.05100000000001 C 25.314 37.95400000000001 25.305 38.86600000000001 25.297 39.78600000000001 C 25.26 41.60300000000001 25.244 43.42700000000001 25.303 45.269000000000005 C 25.331 46.187000000000005 25.383 47.105000000000004 25.46 48.011 C 25.536 48.914 25.641000000000002 49.816 25.829 50.641000000000005 C 25.922 51.051 26.035 51.444 26.172 51.776 C 26.308 52.105000000000004 26.475 52.362 26.6 52.477000000000004 C 26.732000000000003 52.582 26.767000000000003 52.61000000000001 26.979000000000003 52.627 C 27.180000000000003 52.647000000000006 27.527 52.59 27.897000000000002 52.484 C 28.657000000000004 52.262 29.523000000000003 51.873000000000005 30.407000000000004 51.482 C 31.297000000000004 51.088 32.218 50.674 33.18600000000001 50.324 C 35.114000000000004 49.616 37.239000000000004 49.117 39.41100000000001 49.143 C 41.42900000000001 49.19 43.45100000000001 49.361000000000004 45.44400000000001 49.768 C 47.44300000000001 50.164 49.38000000000001 50.875 51.153000000000006 51.769 C 52.92400000000001 52.672 54.540000000000006 53.739999999999995 56.04500000000001 54.857 C 59.05900000000001 57.092999999999996 61.65700000000001 59.528999999999996 64.10900000000001 61.83 C 66.554 64.13 68.80100000000002 66.396 70.849 68.44 C 71.831 69.368 72.953 70.163 74.037 70.825 C 75.131 71.48700000000001 76.23700000000001 72.003 77.316 72.35900000000001 C 79.477 73.09200000000001 81.523 73.14600000000002 83.12700000000001 72.79700000000001 C 83.93200000000002 72.62500000000001 84.62500000000001 72.367 85.22200000000001 72.11500000000001 C 85.80900000000001 71.84800000000001 86.296 71.578 86.673 71.33200000000001 C 86.861 71.206 87.027 71.096 87.17 71.00000000000001 C 87.308 70.89700000000002 87.423 70.80900000000001 87.516 70.73800000000001 C 87.70400000000001 70.59600000000002 87.80000000000001 70.52300000000001 87.80000000000001 70.52300000000001 L 87.808 70.516 C 87.84500000000001 70.488 87.89800000000001 70.495 87.926 70.533 C 87.952 70.569 87.947 70.62 87.913 70.648 C 87.913 70.648 87.819 70.72699999999999 87.639 70.881 C 87.54899999999999 70.958 87.437 71.053 87.304 71.166 C 87.166 71.27499999999999 87 71.39399999999999 86.81700000000001 71.53099999999999 C 86.078 72.065 84.909 72.797 83.239 73.23499999999999 C 81.58 73.67399999999998 79.42 73.71399999999998 77.12100000000001 73.04499999999999 C 74.828 72.38499999999999 72.38900000000001 71.11599999999999 70.16700000000002 69.18499999999999 C 68.03100000000002 67.18799999999999 65.73600000000002 65.01599999999999 63.256000000000014 62.77199999999999 C 60.77000000000002 60.538999999999994 58.12700000000002 58.19699999999999 55.179000000000016 56.05699999999999 C 53.70300000000002 54.99499999999999 52.14200000000002 53.99499999999999 50.466000000000015 53.16899999999999 C 48.78700000000001 52.35199999999999 46.993000000000016 51.72199999999999 45.12400000000002 51.35699999999999 C 43.25500000000002 50.98599999999999 41.332000000000015 50.83099999999999 39.40300000000002 50.794999999999995 C 37.48400000000002 50.782 35.57900000000002 51.230999999999995 33.77000000000002 51.904999999999994 C 32.863000000000014 52.24099999999999 31.972000000000016 52.623999999999995 31.08200000000002 53.013999999999996 C 30.189000000000018 53.4 29.30000000000002 53.803999999999995 28.349000000000018 54.077999999999996 C 27.87300000000002 54.205999999999996 27.375000000000018 54.31099999999999 26.86100000000002 54.269999999999996 C 26.348000000000017 54.245999999999995 25.83200000000002 54.019 25.46400000000002 53.659 C 25.09400000000002 53.297 24.85000000000002 52.847 24.66200000000002 52.391 C 24.47500000000002 51.934 24.34800000000002 51.46 24.24300000000002 50.988 C 23.84500000000002 49.089 23.77600000000002 47.175 23.73200000000002 45.295 C 23.69900000000002 43.413000000000004 23.74300000000002 41.555 23.806000000000022 39.730000000000004 C 23.90700000000002 36.085 23.960000000000022 32.559000000000005 23.85200000000002 29.217000000000006 C 23.786000000000023 25.874000000000006 23.56900000000002 22.719000000000005 23.34000000000002 19.811000000000007 C 23.07300000000002 16.906000000000006 22.783000000000023 14.246000000000006 22.43500000000002 11.900000000000007 C 22.09900000000002 9.554000000000007 21.74600000000002 7.5170000000000075 21.41100000000002 5.848000000000008 C 21.009000000000018 3.796000000000008 20.78000000000002 2.673000000000008 20.27500000000002 1.956000000000008 C 18.90200000000002 0.011000000000007892 16.88800000000002 -0.41499999999999204 14.433000000000021 0.44300000000000805 C 10.799 1.715 8.105 9.125 8.87 34.515 C 9.600999999999999 58.786 23.02 88.977 49.544 91.605 L 49.544 94.465 C 34.687 94.561 22.936999999999998 95.756 22.936999999999998 97.217 C 22.936999999999998 98.741 35.70099999999999 99.975 51.444 99.975 C 67.188 99.975 79.95100000000001 98.74199999999999 79.95100000000001 97.217 C 79.95100000000001 95.756 68.203 94.56099999999999 53.345000000000006 94.465 L 53.345000000000006 91.809 C 82.379 91.791 100.397 66.932 92.139 54.505 z" stroke-linecap="round" />
</g>
		<g transform="matrix(2.18 0 0 2.18 0 92)"  >
<path style="stroke: none; stroke-width: 1; stroke-dasharray: none; stroke-linecap: butt; stroke-dashoffset: 0; stroke-linejoin: miter; stroke-miterlimit: 4; fill: rgb(17,17,17); fill-rule: nonzero; opacity: 1;" vector-effect="non-scaling-stroke"  transform=" translate(-76.45, -36.71)" d="M 7.28 40.28 C 5.28 40.32 4.720000000000001 39.84 4.6 37.76 C 4.56 37.36 4.8 36.72 4.359999999999999 36.519999999999996 C 3.919999999999999 36.31999999999999 3.5199999999999996 36.76 3.1599999999999993 37.04 C 1.7599999999999993 38.08 0.39999999999999947 39.16 -1.2800000000000011 39.64 C -2.720000000000001 40.08 -4.040000000000001 38.96 -3.760000000000001 37.52 C -3.160000000000001 34.6 0.19999999999999885 31.240000000000002 3.279999999999999 31.560000000000002 C 3.239999999999999 31.560000000000002 3.479999999999999 31.6 3.639999999999999 31.520000000000003 C 4.519999999999999 31.280000000000005 5.3599999999999985 32.52 6.039999999999999 31.720000000000002 C 6.6 31.080000000000002 6.759999999999999 30.160000000000004 7.119999999999999 29.360000000000003 C 8.959999999999999 25.560000000000002 10.6 21.640000000000004 13.399999999999999 18.320000000000004 C 13.799999999999999 17.840000000000003 14.239999999999998 17.320000000000004 14.759999999999998 16.920000000000005 C 16.119999999999997 15.960000000000004 17.4 16.520000000000007 17.639999999999997 18.200000000000006 C 17.879999999999995 19.840000000000007 17.319999999999997 21.320000000000007 16.559999999999995 22.760000000000005 C 14.239999999999995 27.040000000000006 10.799999999999995 30.360000000000007 7.279999999999996 33.64000000000001 C 6.239999999999996 34.60000000000001 5.639999999999996 35.60000000000001 5.439999999999996 37.00000000000001 C 5.079999999999996 39.120000000000005 6.239999999999996 40.16000000000001 8.319999999999997 39.440000000000005 C 9.839999999999996 38.92 11.159999999999997 37.96000000000001 12.279999999999998 36.84 C 13.799999999999997 35.36000000000001 14.799999999999997 34.24 16.319999999999997 32.720000000000006 C 16.479999999999997 32.56000000000001 16.879999999999995 32.28000000000001 16.919999999999998 32.32000000000001 C 17.36 32.68000000000001 16.88 32.92000000000001 16.72 33.120000000000005 C 14.84 35.440000000000005 13.2 37.160000000000004 10.759999999999998 38.92 C 9.759999999999998 39.68 8.639999999999997 40.24 7.279999999999998 40.28 z M 9.36 30.72 C 12.399999999999999 27.68 15.399999999999999 24.56 16.72 20.28 C 17.04 19.32 17.36 18.200000000000003 16.36 17.560000000000002 C 15.239999999999998 16.840000000000003 14.76 18.12 14.2 18.720000000000002 C 11.639999999999999 21.6 10.16 25.080000000000002 8.52 28.480000000000004 C 6.6 32.56 5.76 34.52 9.36 30.720000000000006 z M -2.6 38.56 C -1.92 39.32 -0.9600000000000002 38.84 -0.2400000000000002 38.440000000000005 C 1.4399999999999997 37.52 3 36.36000000000001 4.4399999999999995 35.120000000000005 C 5.119999999999999 34.56 5.68 33.92 5.319999999999999 33.080000000000005 C 4.959999999999999 32.28000000000001 4.039999999999999 32.24 3.2399999999999993 32.24 C 1.1999999999999993 32.24 -1.080000000000001 33.84 -2.3600000000000003 36.160000000000004 C -2.7600000000000002 36.92 -3.24 37.84 -2.6000000000000005 38.56 z M 18.828 39.8 C 16.188 39.8 15.107999999999999 38.279999999999994 15.867999999999999 35.76 C 16.387999999999998 34.199999999999996 17.267999999999997 32.92 18.587999999999997 31.959999999999997 C 19.548 31.279999999999998 20.627999999999997 31.199999999999996 21.548 31.919999999999998 C 22.267999999999997 32.48 22.028 34 21.107999999999997 34.92 C 20.107999999999997 35.92 18.907999999999998 36.52 17.427999999999997 36.440000000000005 C 16.467999999999996 36.36000000000001 16.107999999999997 37.040000000000006 16.587999999999997 37.92 C 17.107999999999997 38.88 18.548 39.4 19.947999999999997 39 C 22.267999999999997 38.32 24.267999999999997 37 25.987999999999996 35.32 C 27.027999999999995 34.32 27.867999999999995 33.68 28.907999999999994 32.64 C 29.067999999999994 32.480000000000004 29.307999999999993 32.2 29.547999999999995 32.52 C 29.667999999999996 32.68 29.587999999999994 32.88 29.467999999999996 33.040000000000006 C 26.747999999999998 35.84 24.267999999999997 38.32000000000001 20.387999999999998 39.60000000000001 C 19.868 39.760000000000005 19.348 39.760000000000005 18.828 39.80000000000001 z M 17.628 35.68 C 18.668 36.16 21.188 34.44 21.228 33.04 C 21.188000000000002 32.44 20.708000000000002 32.12 19.908 32.24 C 19.108 32.32 17.308 34.120000000000005 17.188000000000002 34.92 C 17.108000000000004 35.32 17.308000000000003 35.56 17.628000000000004 35.68 z M 29.536 40.88 C 28.936 40.160000000000004 29.496000000000002 39.36 30.576 38.84 C 31.616 38.32 31.816 37.52 31.496000000000002 36.800000000000004 C 30.456000000000003 34.440000000000005 30.136000000000003 33.800000000000004 30.376 32.84 C 30.616 32 31.296000000000003 31.440000000000005 32.096000000000004 31.400000000000002 C 32.856 31.360000000000003 33.376000000000005 31.720000000000002 33.696000000000005 32.36 C 33.976000000000006 32.92 33.89600000000001 33.839999999999996 33.176 34.32 C 33.016000000000005 34.4 32.736000000000004 34.56 32.576 34.4 C 32.336 34.24 32.456 34.08 32.656 33.879999999999995 C 33.696 33.08 32.576 31.679999999999996 31.695999999999998 32.35999999999999 C 30.735999999999997 33.07999999999999 31.136 34.239999999999995 32.455999999999996 37.07999999999999 C 32.57599999999999 37.31999999999999 32.855999999999995 37.67999999999999 33.336 37.43999999999999 C 34.256 37.03999999999999 35.416 36.51999999999999 36.536 35.99999999999999 C 38.576 35.03999999999999 40.416000000000004 33.879999999999995 42.296 32.63999999999999 C 42.536 32.48 42.856 32.03999999999999 43.136 32.48 C 43.376000000000005 32.839999999999996 42.976000000000006 33 42.696000000000005 33.199999999999996 C 40.056000000000004 35.08 37.29600000000001 36.63999999999999 34.25600000000001 37.8 C 33.29600000000001 38.16 32.57600000000001 38.8 32.336000000000006 39.72 C 32.056000000000004 40.72 30.296000000000006 41.8 29.536000000000005 40.879999999999995 z M 30.816000000000003 40.44 C 31.736000000000004 40.08 32.096000000000004 38.76 31.296000000000003 39.16 C 29.576000000000004 40 30.056000000000004 40.76 30.816000000000003 40.44 z M 46.284 28.64 C 45.844 28.68 45.564 28.400000000000002 45.484 27.96 C 45.324000000000005 26.96 46.244 26.8 46.804 26.52 C 47.204 26.32 47.484 26.72 47.604 27.16 C 47.364 27.8 47.124 28.52 46.284 28.64 z M 44.403999999999996 39.68 C 42.924 40.12 41.724 39.12 41.843999999999994 37.519999999999996 C 42.28399999999999 35.839999999999996 43.083999999999996 34.16 43.88399999999999 32.48 C 44.04399999999999 32.16 44.32399999999999 31.879999999999995 44.64399999999999 32.12 C 45.04399999999999 32.4 44.68399999999999 32.72 44.56399999999999 33 C 44.04399999999999 34.2 43.443999999999996 35.4 43.00399999999999 36.64 C 42.76399999999999 37.36 42.44399999999999 38.2 43.24399999999999 38.88 C 43.763999999999996 39.28 44.64399999999999 38.88 45.28399999999999 38.64 C 47.803999999999995 37.6 49.80399999999999 34.68 52.72399999999999 32.52 C 52.92399999999999 32.400000000000006 53.08399999999999 32.080000000000005 53.32399999999999 32.400000000000006 C 53.523999999999994 32.64000000000001 53.28399999999999 32.84 53.08399999999999 32.96000000000001 C 49.203999999999986 35.760000000000005 48.48399999999999 38.52000000000001 44.40399999999999 39.68000000000001 z M 69.312 32.36 C 69.752 32.8 69.192 33.04 68.952 33.28 C 65.512 36.28 61.992 38.56 58.111999999999995 40.92 C 56.91199999999999 41.68 56.151999999999994 42.56 55.632 43.88 C 54.552 46.72 53.391999999999996 49.56 52.111999999999995 52.32 C 51.391999999999996 53.92 50.59199999999999 55.52 48.87199999999999 56.44 C 46.51199999999999 57.72 44.431999999999995 56.599999999999994 44.27199999999999 53.919999999999995 C 44.19199999999999 52.199999999999996 44.71199999999999 50.67999999999999 45.791999999999994 49.31999999999999 C 47.91199999999999 46.63999999999999 50.63199999999999 44.599999999999994 53.59199999999999 42.919999999999995 C 55.19199999999999 42.03999999999999 56.27199999999999 40.879999999999995 56.751999999999995 39.16 C 57.071999999999996 38.16 57.791999999999994 37.36 57.831999999999994 36.279999999999994 C 56.59199999999999 36.67999999999999 56.071999999999996 37.919999999999995 55.071999999999996 38.63999999999999 C 54.032 39.31999999999999 52.952 40.71999999999999 51.632 39.75999999999999 C 50.472 38.87999999999999 51.032 37.35999999999999 51.391999999999996 36.07999999999999 C 51.912 34.35999999999999 52.912 32.99999999999999 54.592 32.239999999999995 C 55.832 31.639999999999993 57.112 31.439999999999994 58.352 32.239999999999995 C 58.632 32.39999999999999 58.791999999999994 32.67999999999999 59.232 32.559999999999995 C 60.192 32.31999999999999 60.432 32.519999999999996 60.112 33.4 C 59.192 35.68 58.352000000000004 37.96 57.192 40.12 C 57.192 40.16 57.272 40.199999999999996 57.352 40.199999999999996 C 57.791999999999994 40.239999999999995 59.391999999999996 39.239999999999995 59.471999999999994 39.199999999999996 C 62.711999999999996 37.12 65.592 35.199999999999996 68.512 32.72 C 68.752 32.519999999999996 69.032 32.08 69.312 32.36 z M 53.431999999999995 38.92 C 55.071999999999996 38 56.27199999999999 36.52 57.471999999999994 35.120000000000005 C 57.95199999999999 34.56 58.751999999999995 33.92 58.071999999999996 33.040000000000006 C 57.431999999999995 32.24000000000001 56.51199999999999 32.400000000000006 55.672 32.64000000000001 C 53.672 33.20000000000001 51.791999999999994 35.80000000000001 51.791999999999994 37.92000000000001 C 51.751999999999995 39.36000000000001 52.19199999999999 39.64000000000001 53.431999999999995 38.92000000000001 z M 50.632 53.519999999999996 C 52.272 50.279999999999994 53.632 46.919999999999995 54.711999999999996 43.44 C 54.711999999999996 43.4 54.711999999999996 43.28 54.592 43.32 C 51.232 44.88 48.472 47.24 46.111999999999995 50.04 C 45.151999999999994 51.199999999999996 44.791999999999994 52.6 44.992 54.12 C 45.192 55.96 46.632 56.72 48.272 55.879999999999995 C 49.312 55.35999999999999 50.112 54.519999999999996 50.632 53.519999999999996 z M 77.82 39.76 C 77.05999999999999 38.96 77.41999999999999 37.879999999999995 77.66 36.92 C 77.94 35.84 78.42 34.800000000000004 78.61999999999999 33.72 C 78.85999999999999 32.56 78.25999999999999 32.12 77.13999999999999 32.56 C 75.37999999999998 33.2 73.85999999999999 34.28 72.53999999999999 35.6 C 71.38 36.76 70.3 37.92 69.13999999999999 39.04 C 68.85999999999999 39.32 68.57999999999998 39.92 68.01999999999998 39.6 C 67.65999999999998 39.4 67.77999999999999 38.88 67.85999999999999 38.52 C 68.21999999999998 36.24 69.37999999999998 34.32 70.29999999999998 32.24 C 70.37999999999998 32.04 70.61999999999998 31.92 70.73999999999998 32.04 C 70.85999999999999 32.24 70.93999999999998 32.56 70.85999999999999 32.76 C 70.37999999999998 33.919999999999995 69.81999999999998 35.08 69.33999999999999 36.239999999999995 C 69.13999999999999 36.71999999999999 68.89999999999999 37.239999999999995 68.77999999999999 37.71999999999999 C 68.73999999999998 37.919999999999995 68.65999999999998 38.47999999999999 69.13999999999999 37.99999999999999 C 71.13999999999999 36.11999999999999 72.82 33.959999999999994 75.29999999999998 32.63999999999999 C 76.33999999999999 32.07999999999999 77.45999999999998 30.879999999999992 78.69999999999999 31.839999999999993 C 80.01999999999998 32.83999999999999 79.29999999999998 34.279999999999994 78.93999999999998 35.519999999999996 C 78.69999999999999 36.44 78.33999999999999 37.279999999999994 78.17999999999998 38.199999999999996 C 77.97999999999998 39.199999999999996 78.33999999999997 39.67999999999999 79.49999999999997 39.199999999999996 C 81.41999999999997 38.35999999999999 82.97999999999998 36.99999999999999 84.57999999999997 35.76 C 85.97999999999998 34.64 87.05999999999997 33.72 88.45999999999997 32.599999999999994 C 88.65999999999997 32.39999999999999 89.01999999999997 32.07999999999999 89.25999999999996 32.39999999999999 C 89.41999999999996 32.599999999999994 89.05999999999996 32.79999999999999 88.85999999999996 32.959999999999994 C 86.45999999999995 35.03999999999999 84.33999999999996 36.879999999999995 81.73999999999995 38.71999999999999 C 81.33999999999995 38.99999999999999 80.93999999999996 39.239999999999995 80.53999999999995 39.39999999999999 C 79.65999999999995 39.79999999999999 78.73999999999995 40.67999999999999 77.81999999999995 39.75999999999999 z M 97.288 44.76 C 96.88799999999999 44.68 97.008 44.4 97.088 44.16 C 97.60799999999999 42.239999999999995 98.40799999999999 40.4 99.16799999999999 38.559999999999995 C 99.76799999999999 36.99999999999999 99.76799999999999 36.959999999999994 98.16799999999999 36.879999999999995 C 97.568 36.839999999999996 97.008 36.63999999999999 96.448 36.48 C 95.208 36.12 94.04799999999999 35.12 92.728 36.4 C 92.408 36.68 91.52799999999999 36.64 91.088 36.04 C 90.768 35.6 90.768 35 91.088 34.56 C 91.488 33.92 92.208 33.2 92.848 33.6 C 94.568 34.64 95.048 33.32 95.728 32.32 C 97.928 29 99.60799999999999 25.36 101.52799999999999 21.880000000000003 C 101.728 21.480000000000004 101.96799999999999 21.080000000000002 102.208 20.680000000000003 C 102.248 20.600000000000005 102.448 20.520000000000003 102.52799999999999 20.520000000000003 C 102.76799999999999 20.560000000000002 102.80799999999999 20.800000000000004 102.76799999999999 20.960000000000004 C 102.52799999999999 21.520000000000003 102.32799999999999 22.080000000000005 102.04799999999999 22.560000000000006 C 99.84799999999998 26.520000000000007 98.12799999999999 30.720000000000006 95.24799999999999 34.24000000000001 C 94.88799999999999 34.64000000000001 94.928 34.84000000000001 95.40799999999999 35.12000000000001 C 96.40799999999999 35.640000000000015 97.448 36.08000000000001 98.56799999999998 36.16000000000001 C 99.64799999999998 36.20000000000001 100.32799999999999 35.80000000000001 100.68799999999999 34.76000000000001 C 101.04799999999999 33.680000000000014 101.56799999999998 32.680000000000014 102.04799999999999 31.680000000000014 C 102.16799999999999 31.440000000000015 102.32799999999999 31.160000000000014 102.64799999999998 31.240000000000013 C 102.96799999999998 31.360000000000014 102.80799999999998 31.680000000000014 102.76799999999999 31.920000000000012 C 102.52799999999999 33.20000000000001 101.08799999999998 34.20000000000001 101.92799999999998 35.680000000000014 C 99.52799999999998 38.12000000000001 99.16799999999998 41.52000000000001 97.72799999999998 44.44000000000001 C 97.64799999999998 44.60000000000001 97.44799999999998 44.76000000000001 97.28799999999998 44.76000000000001 z M 92.208 35.76 C 92.648 35.72 93.088 35.519999999999996 93.208 35.04 C 93.328 34.64 92.968 34.48 92.608 34.48 C 92.08800000000001 34.48 91.72800000000001 34.76 91.64800000000001 35.279999999999994 C 91.608 35.599999999999994 91.84800000000001 35.71999999999999 92.20800000000001 35.75999999999999 z M 97.83600000000001 55.32 C 95.95600000000002 54.76 95.35600000000001 53.56 95.99600000000001 51.68 C 96.596 49.92 97.83600000000001 48.6 99.11600000000001 47.36 C 100.27600000000001 46.2 101.07600000000001 45.28 102.51600000000002 44.32 C 105.95600000000002 42.44 107.83600000000001 39.16 108.99600000000002 35.72 C 109.07600000000002 35.56 108.91600000000003 35.36 108.79600000000002 35.519999999999996 C 107.55600000000003 36.519999999999996 106.55600000000003 37.8 105.15600000000002 38.599999999999994 C 104.51600000000002 38.99999999999999 103.83600000000003 39.35999999999999 103.11600000000001 39.03999999999999 C 102.23600000000002 38.63999999999999 102.51600000000002 37.75999999999999 102.51600000000002 37.07999999999999 C 102.55600000000003 35.23999999999999 103.47600000000001 33.67999999999999 104.31600000000002 32.07999999999999 C 104.43600000000002 31.879999999999992 104.67600000000002 31.679999999999993 104.95600000000002 31.91999999999999 C 105.11600000000001 32.07999999999999 105.03600000000002 32.23999999999999 104.95600000000002 32.43999999999999 C 104.51600000000002 33.39999999999999 104.07600000000002 34.35999999999999 103.67600000000002 35.35999999999999 C 103.47600000000001 35.879999999999995 103.31600000000002 36.47999999999999 103.23600000000002 37.07999999999999 C 103.19600000000001 37.47999999999999 103.03600000000002 38.07999999999999 103.47600000000001 38.35999999999999 C 103.91600000000001 38.63999999999999 104.35600000000001 38.31999999999999 104.75600000000001 38.07999999999999 C 106.59600000000002 36.919999999999995 107.91600000000001 35.19999999999999 109.39600000000002 33.71999999999999 C 109.95600000000002 33.19999999999999 110.39600000000002 31.879999999999992 111.03600000000002 32.31999999999999 C 111.75600000000001 32.839999999999996 110.95600000000002 33.919999999999995 110.59600000000002 34.67999999999999 C 109.87600000000002 36.279999999999994 109.07600000000002 37.879999999999995 108.31600000000002 39.519999999999996 C 108.19600000000001 39.72 108.03600000000002 40.08 108.23600000000002 40.199999999999996 C 108.47600000000001 40.4 108.67600000000002 40.08 108.87600000000002 39.959999999999994 C 112.51600000000002 37.63999999999999 116.15600000000002 35.44 119.75600000000001 33.16 C 120.11600000000001 32.919999999999995 120.43600000000002 32.72 120.79600000000002 32.519999999999996 C 120.99600000000002 32.36 121.23600000000002 32.08 121.43600000000002 32.4 C 121.63600000000002 32.72 121.27600000000002 32.839999999999996 121.07600000000002 32.96 C 118.71600000000002 34.52 116.31600000000002 35.96 113.95600000000002 37.52 C 112.99600000000002 38.160000000000004 112.11600000000001 38.88 111.07600000000002 39.32 C 107.91600000000003 41.28 106.59600000000002 43.16 105.59600000000002 46.16 C 104.75600000000001 48.72 103.75600000000001 51.279999999999994 102.11600000000001 53.48 C 100.95600000000002 55.04 99.19600000000001 55.76 97.83600000000001 55.32 z M 99.35600000000001 54.64 C 100.47600000000001 54.160000000000004 101.39600000000002 53.4 101.99600000000001 52.36 C 103.596 49.48 104.91600000000001 46.48 105.71600000000001 43.24 L 105.63600000000001 43.2 C 102.236 45.080000000000005 99.39600000000002 47.56 97.156 50.760000000000005 C 96.876 51.120000000000005 96.676 51.56 96.55600000000001 52.00000000000001 C 96.27600000000001 52.800000000000004 96.23600000000002 53.64000000000001 96.95600000000002 54.20000000000001 C 97.63600000000002 54.68000000000001 98.39600000000002 55.04000000000001 99.35600000000002 54.64000000000001 z M 123.30400000000002 40.52 C 121.82400000000001 40.92 120.26400000000001 40.040000000000006 119.94400000000002 38.6 C 119.30400000000002 35.88 121.26400000000001 32.36 123.86400000000002 31.48 C 126.26400000000002 30.64 128.18400000000003 32 128.18400000000003 34.52 L 128.18400000000003 35.52 C 128.18400000000003 36.400000000000006 130.50400000000002 34.720000000000006 132.66400000000002 33.800000000000004 C 133.984 33.2 135.50400000000002 32.68000000000001 136.90400000000002 32.36000000000001 C 137.104 32.32000000000001 137.50400000000002 32.24000000000001 137.50400000000002 32.64000000000001 C 137.50400000000002 32.92000000000001 137.264 32.92000000000001 137.06400000000002 32.96000000000001 C 133.94400000000002 33.720000000000006 131.42400000000004 35.24000000000001 128.544 36.52000000000001 C 127.74400000000001 36.88000000000001 127.22400000000002 37.32000000000001 126.74400000000001 37.96000000000001 C 125.86400000000002 39.120000000000005 124.82400000000001 40.16000000000001 123.30400000000002 40.52000000000001 z M 125.82400000000001 36.28 C 126.784 36.52 127.46400000000001 35.64 127.50400000000002 34 C 127.54400000000003 33.52 127.42400000000002 32.88 126.90400000000002 32.52 C 126.26400000000002 32.040000000000006 126.10400000000003 33.080000000000005 125.46400000000003 33.160000000000004 C 124.58400000000003 33.28 124.34400000000002 34.2 124.42400000000002 35.040000000000006 C 124.50400000000002 35.800000000000004 125.14400000000002 36.120000000000005 125.82400000000003 36.28000000000001 z M 122.74400000000001 39.72 C 124.02400000000002 39.72 124.90400000000001 38.92 125.70400000000001 38 C 126.024 37.68 126.10400000000001 37.32 125.584 37.12 C 123.504 36.32 123.024 35 124.104 33.08 C 124.184 32.92 124.344 32.68 124.104 32.559999999999995 C 123.984 32.48 123.744 32.559999999999995 123.584 32.63999999999999 C 122.06400000000001 33.279999999999994 120.464 35.99999999999999 120.62400000000001 37.63999999999999 C 120.74400000000001 39.03999999999999 121.424 39.71999999999999 122.74400000000001 39.71999999999999 z M 136.45200000000003 40.04 C 135.57200000000003 39.48 135.81200000000004 38.48 135.97200000000004 37.68 C 136.41200000000003 35.76 137.41200000000003 34.12 138.41200000000003 32.48 C 138.57200000000003 32.239999999999995 138.81200000000004 31.839999999999996 139.17200000000003 32.12 C 139.532 32.4 139.21200000000002 32.72 139.092 33 C 138.252 34.52 137.372 35.96 136.852 37.64 C 136.65200000000002 38.24 136.372 38.8 136.892 39.28 C 137.492 39.800000000000004 138.132 39.56 138.732 39.2 C 141.092 37.88 142.932 35.96 144.772 34.040000000000006 C 144.892 33.88000000000001 145.012 33.720000000000006 145.172 33.56000000000001 C 145.492 33.24000000000001 145.732 32.48000000000001 146.37199999999999 32.92000000000001 C 146.892 33.28000000000001 146.332 33.76000000000001 146.172 34.16000000000001 C 145.732 35.12000000000001 145.252 36.04000000000001 144.892 37.04000000000001 C 144.412 38.52000000000001 145.212 39.44000000000001 146.692 39.08000000000001 C 148.452 38.680000000000014 150.05200000000002 37.88000000000001 151.412 36.640000000000015 C 153.092 35.12000000000001 154.332 33.960000000000015 156.012 32.48000000000002 C 156.212 32.280000000000015 156.452 32.12000000000002 156.692 32.40000000000002 C 156.732 32.44000000000002 156.612 32.76000000000002 156.49200000000002 32.88000000000002 C 153.93200000000002 35.40000000000002 151.93200000000002 37.72000000000001 148.57200000000003 39.240000000000016 C 147.81200000000004 39.56000000000002 147.01200000000003 40.000000000000014 146.29200000000003 39.84000000000002 C 144.33200000000002 39.80000000000002 143.73200000000003 38.960000000000015 143.97200000000004 36.84000000000002 C 144.01200000000003 36.600000000000016 144.13200000000003 36.16000000000002 144.09200000000004 36.12000000000002 C 143.73200000000003 36.00000000000002 143.53200000000004 36.32000000000002 143.33200000000005 36.52000000000002 C 142.01200000000006 37.84000000000002 140.57200000000006 39.000000000000014 138.93200000000004 39.88000000000002 C 138.09200000000004 40.320000000000014 137.25200000000004 40.52000000000002 136.45200000000006 40.04000000000001 z" stroke-linecap="round" />
</g>
</g>
</g>
</svg>