<?xml version="1.0" encoding="UTF-8" standalone="no" ?>
<!DOCTYPE svg PUBLIC "-//W3C//DTD SVG 1.1//EN" "http://www.w3.org/Graphics/SVG/1.1/DTD/svg11.dtd">
<svg xmlns="http://www.w3.org/2000/svg" xmlns:xlink="http://www.w3.org/1999/xlink" version="1.1" width="400" height="400" viewBox="0 0 400 400" xml:space="preserve">
<desc>Created with Fabric.js 5.2.4</desc>
<defs>
</defs>
<g transform="matrix(1 0 0 1 200 200)" id="f5582876-ae5a-44ae-8887-f85956bfd827"  >
<rect style="stroke: none; stroke-width: 1; stroke-dasharray: none; stroke-linecap: butt; stroke-dashoffset: 0; stroke-linejoin: miter; stroke-miterlimit: 4; fill: rgb(255,255,255); fill-rule: nonzero; opacity: 1; visibility: hidden;" vector-effect="non-scaling-stroke"  x="-200" y="-200" rx="0" ry="0" width="400" height="400" />
</g>
<g transform="matrix(Infinity NaN NaN Infinity 0 0)" id="6171143a-2b69-45bd-affa-ad096a5ed853"  >
</g>
<g transform="matrix(0.37 0 0 0.37 200 200)"  >
<g style="" vector-effect="non-scaling-stroke"   >
		<g transform="matrix(1.36 0 0 1.36 -122.89 1.13)"  >
<path style="stroke: none; stroke-width: 1; stroke-dasharray: none; stroke-linecap: butt; stroke-dashoffset: 0; stroke-linejoin: miter; stroke-miterlimit: 4; fill: rgb(17,17,17); fill-rule: nonzero; opacity: 1;" vector-effect="non-scaling-stroke"  transform=" translate(-50.01, -50.06)" d="M 51.5 85.2 C 51.1 84.7 50.7 85 50.7 84.7 C 48.300000000000004 85.3 43.800000000000004 83.7 41.900000000000006 83.9 C 42.300000000000004 83.30000000000001 41.300000000000004 83.4 41.300000000000004 83 C 40.900000000000006 83.6 40.50000000000001 83 39.900000000000006 83.2 C 39.300000000000004 81.7 36.900000000000006 82.8 36.60000000000001 80.9 C 35.20000000000001 80.9 34.70000000000001 80.10000000000001 33.30000000000001 79.30000000000001 C 33.40000000000001 79.20000000000002 33.500000000000014 79.20000000000002 33.60000000000001 79.10000000000001 C 32.900000000000006 79.00000000000001 32.900000000000006 78.60000000000001 32.30000000000001 78.60000000000001 L 32.500000000000014 78.2 C 31.400000000000013 78 31.000000000000014 76.3 29.400000000000013 75.7 C 28.900000000000013 75.60000000000001 27.80000000000001 73.9 27.200000000000014 73.5 C 26.900000000000013 73.3 26.400000000000013 73.3 27.100000000000012 73.2 C 27.00000000000001 73.10000000000001 27.00000000000001 72.9 27.100000000000012 72.8 C 26.400000000000013 72.6 26.30000000000001 72 25.400000000000013 71.7 C 25.30000000000001 71.4 25.600000000000012 71.2 25.400000000000013 71 C 25.200000000000014 70.9 24.900000000000013 71.1 24.700000000000014 71 C 24.600000000000012 72.8 26.600000000000012 73 27.200000000000014 74.5 C 27.000000000000014 74.3 26.700000000000014 73.7 26.500000000000014 74.1 C 26.400000000000013 74.39999999999999 27.300000000000015 75.5 27.300000000000015 74.89999999999999 C 27.000000000000014 75.1 26.900000000000016 74.6 27.100000000000016 74.49999999999999 C 27.400000000000016 74.99999999999999 28.000000000000014 74.89999999999999 28.000000000000014 75.29999999999998 C 27.700000000000014 75.59999999999998 27.300000000000015 74.99999999999999 27.400000000000013 75.49999999999999 C 28.30000000000001 75.99999999999999 28.200000000000014 76.49999999999999 28.700000000000014 77.19999999999999 C 28.300000000000015 76.69999999999999 28.200000000000014 77.6 27.800000000000015 77.19999999999999 C 27.700000000000014 75.69999999999999 26.000000000000014 75.99999999999999 26.000000000000014 74.49999999999999 C 25.800000000000015 73.99999999999999 25.600000000000016 74.39999999999999 25.300000000000015 74.19999999999999 C 25.700000000000014 73.79999999999998 24.100000000000016 72.39999999999999 24.100000000000016 72.89999999999999 C 23.600000000000016 72.3 23.900000000000016 72.1 23.800000000000015 71.69999999999999 C 23.400000000000016 71.6 23.700000000000014 72.1 23.400000000000016 71.79999999999998 C 23.800000000000015 71.09999999999998 22.900000000000016 70.19999999999999 22.300000000000015 69.49999999999999 L 22.700000000000014 69.29999999999998 C 22.000000000000014 68.89999999999998 21.900000000000013 68.09999999999998 21.400000000000013 67.19999999999999 C 20.80000000000001 68.1 22.600000000000012 70.1 22.30000000000001 70.49999999999999 C 22.30000000000001 70.59999999999998 23.00000000000001 71.39999999999999 23.20000000000001 71.79999999999998 C 24.00000000000001 73.19999999999999 24.60000000000001 74.89999999999998 25.70000000000001 75.69999999999999 C 25.50000000000001 75.6 25.60000000000001 74.99999999999999 25.90000000000001 75.29999999999998 C 25.90000000000001 75.59999999999998 25.70000000000001 75.89999999999998 25.70000000000001 76.19999999999999 C 26.30000000000001 76.79999999999998 26.80000000000001 77.29999999999998 27.40000000000001 77.89999999999999 C 26.10000000000001 77.1 24.800000000000008 76.3 23.90000000000001 75.1 C 24.40000000000001 75 24.90000000000001 75.89999999999999 25.300000000000008 75.8 C 24.300000000000008 75 24.60000000000001 74.7 24.200000000000006 73.7 C 23.800000000000008 73.4 24.300000000000008 74.10000000000001 23.900000000000006 74.2 C 22.600000000000005 73 21.600000000000005 72.3 21.000000000000007 71.2 C 21.10000000000001 71.10000000000001 21.200000000000006 71 21.200000000000006 70.8 C 21.100000000000005 70.7 21.100000000000005 70.7 21.000000000000007 70.6 C 21.60000000000001 71.19999999999999 21.800000000000008 71.69999999999999 22.500000000000007 71.8 C 22.200000000000006 71.5 22.500000000000007 71.39999999999999 22.10000000000001 71.1 C 21.90000000000001 70.69999999999999 21.60000000000001 71.3 21.40000000000001 71 C 21.60000000000001 70.7 21.40000000000001 70.3 21.40000000000001 70 C 21.20000000000001 70 21.00000000000001 70 20.90000000000001 69.7 C 20.70000000000001 69.60000000000001 20.60000000000001 69.7 20.50000000000001 69.9 C 20.40000000000001 69.80000000000001 20.40000000000001 69.60000000000001 20.30000000000001 69.5 C 20.30000000000001 69.5 20.30000000000001 69.4 20.30000000000001 69.4 C 20.20000000000001 69.30000000000001 20.100000000000012 69.10000000000001 20.00000000000001 69 C 19.20000000000001 66.9 18.70000000000001 64.1 17.600000000000012 62.3 C 17.900000000000013 61.099999999999994 17.400000000000013 58.699999999999996 17.100000000000012 58.099999999999994 C 17.400000000000013 57.599999999999994 17.200000000000014 55.3 17.00000000000001 54.89999999999999 C 16.50000000000001 55.099999999999994 17.100000000000012 56.19999999999999 16.600000000000012 56.49999999999999 C 16.100000000000012 54.29999999999999 16.900000000000013 51.79999999999999 16.700000000000014 49.79999999999999 C 16.900000000000013 49.79999999999999 17.100000000000012 49.79999999999999 17.100000000000012 49.69999999999999 C 16.80000000000001 49.39999999999999 17.30000000000001 48.79999999999999 17.200000000000014 48.09999999999999 C 17.600000000000012 47.19999999999999 16.300000000000015 49.399999999999984 16.300000000000015 50.29999999999999 C 16.200000000000014 50.49999999999999 15.800000000000015 50.29999999999999 15.900000000000015 50.79999999999999 C 15.900000000000015 51.49999999999999 16.100000000000016 52.89999999999999 15.700000000000015 53.89999999999999 C 15.500000000000016 53.89999999999999 15.500000000000016 53.69999999999999 15.300000000000015 53.79999999999999 C 15.200000000000015 54.29999999999999 15.100000000000016 54.89999999999999 15.000000000000014 55.39999999999999 C 14.900000000000015 55.19999999999999 14.800000000000015 54.89999999999999 14.800000000000015 54.79999999999999 C 14.300000000000015 52.29999999999999 14.800000000000015 49.39999999999999 14.600000000000016 47.29999999999999 C 15.000000000000016 47.29999999999999 15.000000000000016 46.69999999999999 15.300000000000015 46.49999999999999 C 15.200000000000015 47.29999999999999 15.000000000000014 48.29999999999999 15.500000000000014 48.49999999999999 C 15.900000000000015 44.599999999999994 16.700000000000014 40.3 18.500000000000014 36.099999999999994 C 19.800000000000015 32.99999999999999 21.700000000000014 29.899999999999995 24.000000000000014 27.399999999999995 C 24.200000000000014 27.699999999999996 23.900000000000013 28.399999999999995 24.000000000000014 28.699999999999996 C 26.000000000000014 26.599999999999994 27.300000000000015 24.099999999999994 29.500000000000014 22.699999999999996 C 29.600000000000016 23.199999999999996 28.600000000000016 23.599999999999994 28.600000000000016 23.999999999999996 C 29.500000000000014 23.099999999999998 29.800000000000015 23.399999999999995 30.800000000000015 23.099999999999998 C 31.100000000000016 22.7 30.400000000000016 23.099999999999998 30.300000000000015 22.7 C 30.900000000000016 22.3 31.300000000000015 21.8 31.700000000000014 21.5 C 31.700000000000014 21.6 31.600000000000012 21.6 31.600000000000012 21.7 C 32.70000000000001 21.4 32.80000000000001 20.8 33.60000000000001 20.599999999999998 C 33.50000000000001 20.499999999999996 33.30000000000001 20.4 33.00000000000001 20.499999999999996 C 33.20000000000001 20.399999999999995 33.50000000000001 20.199999999999996 33.800000000000004 20.099999999999998 C 33.7 20.099999999999998 33.7 20.2 33.6 20.2 C 34.2 19.9 33.7 20.3 33.7 20.5 C 33.800000000000004 20.5 33.900000000000006 20.4 33.900000000000006 20.4 C 33.300000000000004 20.799999999999997 32.900000000000006 21 32.7 21.7 C 33 21.5 33.1 21.7 33.5 21.4 C 33.9 21.2 33.4 20.9 33.7 20.7 C 34 20.9 34.400000000000006 20.8 34.7 20.8 C 34.7 20.6 34.800000000000004 20.400000000000002 35 20.3 C 35.1 20.1 35 20 34.9 20 C 35 19.9 35.1 19.9 35.3 19.8 C 35.3 19.8 35.4 19.8 35.4 19.900000000000002 C 37.1 19.1 39 18.400000000000002 40.8 17.8 C 41.9 17.7 43.3 17.7 43.9 17 C 43.699999999999996 17 43.5 17.1 43.4 17 C 43.5 17 43.699999999999996 16.9 43.8 16.9 C 44 17.099999999999998 44.3 16.9 44 17.299999999999997 C 44.1 17.299999999999997 44.1 17.299999999999997 44.2 17.199999999999996 C 44.2 17.299999999999997 44.2 17.299999999999997 44.300000000000004 17.399999999999995 C 44.400000000000006 17.399999999999995 44.50000000000001 17.299999999999994 44.6 17.099999999999994 C 44.7 17.099999999999994 44.800000000000004 17.099999999999994 44.9 16.999999999999993 C 44.9 16.999999999999993 44.8 17.099999999999994 44.8 17.099999999999994 C 45.599999999999994 16.899999999999995 46.3 16.999999999999993 47.4 16.799999999999994 C 47.4 16.699999999999992 47.4 16.599999999999994 47.4 16.499999999999993 C 47.6 16.499999999999993 47.699999999999996 16.39999999999999 47.9 16.39999999999999 C 47.9 16.39999999999999 47.9 16.499999999999993 47.9 16.499999999999993 C 48.3 16.299999999999994 48.699999999999996 16.699999999999992 48.699999999999996 16.499999999999993 C 48.8 16.499999999999993 48.8 16.499999999999993 48.9 16.499999999999993 C 48.9 16.699999999999992 48.8 16.799999999999994 48.8 16.89999999999999 C 49.3 16.89999999999999 49.599999999999994 16.89999999999999 49.8 16.59999999999999 C 49.699999999999996 16.49999999999999 49.599999999999994 16.49999999999999 49.5 16.49999999999999 C 49.7 16.49999999999999 49.9 16.399999999999988 50.1 16.29999999999999 C 50.4 16.39999999999999 50.5 16.49999999999999 50.5 16.89999999999999 C 51 15.999999999999991 52.6 17.09999999999999 53.3 16.89999999999999 C 53.599999999999994 16.89999999999999 53.5 16.499999999999993 53.699999999999996 16.29999999999999 C 53.8 16.29999999999999 53.9 16.29999999999999 53.99999999999999 16.29999999999999 C 54.49999999999999 16.69999999999999 55.199999999999996 17.09999999999999 56.099999999999994 17.19999999999999 C 55.3 16.99999999999999 56.199999999999996 16.899999999999988 56.3 16.79999999999999 C 56.099999999999994 16.79999999999999 56.099999999999994 16.69999999999999 56.099999999999994 16.59999999999999 C 56.39999999999999 16.59999999999999 56.699999999999996 16.699999999999992 56.99999999999999 16.699999999999992 C 56.99999999999999 16.89999999999999 57.099999999999994 16.999999999999993 57.29999999999999 16.999999999999993 C 57.49999999999999 16.999999999999993 57.49999999999999 16.89999999999999 57.49999999999999 16.699999999999992 C 57.79999999999999 16.699999999999992 57.99999999999999 16.699999999999992 58.29999999999999 16.799999999999994 C 58.19999999999999 17.199999999999992 58.79999999999999 17.299999999999994 58.99999999999999 17.599999999999994 C 58.199999999999996 17.399999999999995 57.29999999999999 17.099999999999994 56.99999999999999 17.599999999999994 C 60.199999999999996 18.299999999999994 63.699999999999996 19.299999999999994 67.1 20.999999999999993 C 67.1 20.999999999999993 67.1 20.999999999999993 67.1 21.099999999999994 C 67.1 21.099999999999994 67.19999999999999 21.099999999999994 67.19999999999999 21.099999999999994 C 67.79999999999998 21.399999999999995 68.39999999999999 21.699999999999996 68.99999999999999 21.999999999999993 C 69.39999999999999 22.199999999999992 69.69999999999999 22.39999999999999 70.09999999999998 22.699999999999992 C 70.09999999999998 22.799999999999994 70.09999999999998 22.89999999999999 70.29999999999998 22.89999999999999 C 70.29999999999998 22.89999999999999 70.39999999999998 22.89999999999999 70.39999999999998 22.89999999999999 C 70.79999999999998 23.199999999999992 71.19999999999997 23.39999999999999 71.59999999999998 23.699999999999992 C 71.99999999999999 24.299999999999994 72.39999999999998 25.09999999999999 73.09999999999998 24.89999999999999 C 74.59999999999998 27.199999999999992 76.19999999999997 28.09999999999999 77.49999999999999 30.499999999999993 C 77.59999999999998 30.099999999999994 77.89999999999999 31.39999999999999 78.39999999999999 31.499999999999993 C 77.6 31.39999999999999 78.89999999999999 31.999999999999993 78.1 31.89999999999999 C 78.8 32.599999999999994 79 32.89999999999999 79.1 33.69999999999999 C 78.89999999999999 33.29999999999999 78.8 33.19999999999999 78.69999999999999 33.59999999999999 C 78.6 34.19999999999999 79.39999999999999 33.499999999999986 79.69999999999999 34.09999999999999 C 79.1 34.09999999999999 79.29999999999998 34.499999999999986 79.39999999999999 34.999999999999986 C 79.69999999999999 34.69999999999999 79.6 34.399999999999984 79.89999999999999 34.499999999999986 C 80.3 34.899999999999984 79.69999999999999 34.999999999999986 79.8 35.29999999999998 C 80.1 34.899999999999984 80.2 35.09999999999998 80.6 35.29999999999998 C 80.1 35.399999999999984 80.89999999999999 36.09999999999998 80.3 35.79999999999998 C 80.7 36.29999999999998 80.8 36.59999999999998 80.6 37.09999999999998 C 80.19999999999999 36.49999999999998 80.5 36.09999999999998 79.89999999999999 36.19999999999998 C 81.1 37.19999999999998 80.49999999999999 39.49999999999998 81.89999999999999 39.69999999999998 C 80.99999999999999 39.899999999999984 81.89999999999999 40.29999999999998 81.39999999999999 40.399999999999984 C 81.99999999999999 40.59999999999999 81.69999999999999 41.399999999999984 82.39999999999999 41.59999999999999 C 82.3 42.09999999999999 82.1 42.399999999999984 81.99999999999999 42.899999999999984 C 82.29999999999998 43.29999999999998 82.39999999999999 44.09999999999999 82.89999999999999 44.19999999999998 C 82.6 44.49999999999998 82.8 45.29999999999998 82.49999999999999 45.59999999999998 C 82.89999999999999 45.39999999999998 83.09999999999998 45.39999999999998 83.39999999999999 45.79999999999998 C 82.89999999999999 46.19999999999998 83.3 46.59999999999998 82.99999999999999 46.69999999999998 C 83.89999999999999 48.99999999999998 82.79999999999998 53.69999999999998 83.29999999999998 55.499999999999986 C 82.69999999999999 55.19999999999999 82.89999999999998 56.19999999999999 82.49999999999999 56.19999999999999 C 83.19999999999999 56.499999999999986 82.59999999999998 56.999999999999986 82.89999999999999 57.499999999999986 C 81.49999999999999 58.29999999999998 82.89999999999999 60.499999999999986 80.99999999999999 60.999999999999986 C 81.19999999999999 62.399999999999984 80.39999999999999 62.999999999999986 79.79999999999998 64.49999999999999 C 79.69999999999999 64.39999999999999 79.69999999999999 64.29999999999998 79.59999999999998 64.19999999999999 C 79.49999999999999 64.89999999999999 79.09999999999998 64.99999999999999 79.29999999999998 65.6 L 78.89999999999998 65.39999999999999 C 78.89999999999998 66.49999999999999 77.19999999999997 67.1 76.79999999999998 68.8 C 76.69999999999999 69.3 75.19999999999999 70.6 74.79999999999998 71.3 C 74.59999999999998 71.6 74.69999999999999 72.1 74.49999999999999 71.39999999999999 C 74.39999999999999 71.49999999999999 74.19999999999999 71.49999999999999 74.09999999999998 71.49999999999999 C 73.99999999999999 72.19999999999999 73.39999999999998 72.39999999999999 73.19999999999997 73.29999999999998 C 72.99999999999997 73.39999999999998 72.69999999999997 73.09999999999998 72.49999999999997 73.39999999999998 C 72.49999999999997 73.59999999999998 72.69999999999997 73.89999999999998 72.59999999999997 74.09999999999998 C 74.39999999999996 73.99999999999999 74.39999999999996 71.89999999999998 75.79999999999997 71.19999999999997 C 75.69999999999997 71.49999999999997 75.09999999999997 71.79999999999997 75.49999999999997 71.99999999999997 C 75.79999999999997 71.99999999999997 76.69999999999997 70.99999999999997 76.19999999999997 71.09999999999997 C 76.49999999999997 71.29999999999997 75.89999999999998 71.49999999999997 75.79999999999997 71.39999999999996 C 76.29999999999997 70.99999999999996 76.09999999999997 70.49999999999996 76.49999999999997 70.39999999999996 C 76.79999999999997 70.59999999999997 76.19999999999997 71.09999999999997 76.79999999999997 70.99999999999996 C 77.19999999999997 70.09999999999995 77.69999999999997 69.99999999999996 78.29999999999997 69.49999999999996 C 77.89999999999996 69.89999999999996 78.79999999999997 69.99999999999996 78.39999999999996 70.39999999999996 C 76.89999999999996 70.69999999999996 77.39999999999996 72.39999999999996 75.89999999999996 72.59999999999997 C 75.49999999999996 72.89999999999996 75.79999999999997 72.99999999999997 75.69999999999996 73.29999999999997 C 75.19999999999996 72.99999999999997 74.09999999999997 74.69999999999997 74.49999999999996 74.59999999999997 C 73.99999999999996 75.09999999999997 73.69999999999996 74.89999999999996 73.29999999999995 74.99999999999997 C 73.19999999999996 75.39999999999998 73.69999999999996 75.09999999999997 73.49999999999996 75.39999999999998 C 72.79999999999995 75.09999999999998 71.89999999999996 76.09999999999998 71.29999999999995 76.79999999999998 L 70.99999999999996 76.49999999999999 C 70.69999999999996 77.29999999999998 69.89999999999996 77.39999999999999 68.99999999999996 77.99999999999999 C 69.99999999999996 78.49999999999999 71.69999999999996 76.39999999999999 72.19999999999996 76.69999999999999 C 72.29999999999995 76.69999999999999 73.09999999999997 75.89999999999999 73.39999999999996 75.6 C 74.69999999999996 74.6 76.29999999999997 73.8 76.89999999999996 72.69999999999999 C 76.79999999999997 72.89999999999999 76.19999999999996 72.89999999999999 76.49999999999996 72.6 C 76.79999999999995 72.5 77.09999999999995 72.69999999999999 77.39999999999996 72.69999999999999 C 78.99999999999996 70.49999999999999 80.99999999999996 68.69999999999999 82.49999999999996 66.1 C 82.59999999999995 66 82.69999999999996 65.8 82.79999999999995 65.6 C 82.59999999999995 66.19999999999999 82.29999999999995 66.69999999999999 82.09999999999995 67.3 C 80.49999999999996 68.39999999999999 79.89999999999995 71.6 77.99999999999996 72.1 C 78.09999999999995 73.19999999999999 77.09999999999995 73.5 76.59999999999995 74.8 C 76.29999999999995 75.2 76.09999999999995 74.5 75.79999999999995 75 C 76.09999999999995 76.4 73.29999999999995 76.3 73.39999999999995 77.6 C 73.19999999999995 77.69999999999999 72.89999999999995 77.8 72.69999999999995 78 C 72.69999999999995 78 72.59999999999995 78 72.59999999999995 78 C 72.49999999999996 78.1 72.49999999999996 78.1 72.39999999999995 78.2 C 71.89999999999995 78.5 71.49999999999994 78.8 71.09999999999995 79.10000000000001 C 69.69999999999995 79.9 67.79999999999995 80.50000000000001 66.29999999999995 81.30000000000001 C 66.29999999999995 81.30000000000001 66.29999999999995 81.20000000000002 66.29999999999995 81.20000000000002 C 65.89999999999995 81.40000000000002 65.39999999999995 81.30000000000001 65.49999999999996 81.70000000000002 C 65.19999999999996 81.90000000000002 64.89999999999996 82.10000000000002 64.59999999999995 82.30000000000001 C 64.49999999999996 82.30000000000001 64.49999999999996 82.30000000000001 64.39999999999995 82.30000000000001 C 64.39999999999995 82.30000000000001 64.29999999999995 82.20000000000002 64.19999999999995 82.20000000000002 C 63.99999999999994 82.20000000000002 63.99999999999994 82.20000000000002 63.89999999999995 82.30000000000001 C 62.59999999999995 82.4 60.89999999999995 83.00000000000001 60.39999999999995 83.4 C 59.89999999999995 83.10000000000001 57.59999999999995 83.60000000000001 57.199999999999946 83.80000000000001 C 57.39999999999995 84.10000000000001 57.99999999999994 83.80000000000001 58.49999999999994 83.80000000000001 C 58.199999999999946 83.9 57.89999999999994 84.00000000000001 57.79999999999994 84.20000000000002 C 57.69999999999994 84.20000000000002 57.69999999999994 84.20000000000002 57.59999999999994 84.20000000000002 C 57.499999999999936 83.90000000000002 57.19999999999994 84.20000000000002 57.09999999999994 84.10000000000002 C 57.09999999999994 84.10000000000002 57.19999999999994 84.10000000000002 57.19999999999994 84.10000000000002 C 57.09999999999994 83.70000000000002 56.79999999999994 83.50000000000003 56.29999999999994 83.60000000000002 C 56.29999999999994 83.80000000000003 56.29999999999994 83.90000000000002 56.19999999999994 84.10000000000002 C 56.39999999999994 84.10000000000002 56.999999999999936 83.80000000000003 56.999999999999936 84.10000000000002 C 56.899999999999935 84.10000000000002 56.899999999999935 84.20000000000002 56.999999999999936 84.20000000000002 C 56.79999999999993 84.40000000000002 56.499999999999936 84.40000000000002 56.29999999999993 84.50000000000001 C 55.899999999999935 84.50000000000001 55.399999999999935 84.50000000000001 54.999999999999936 84.50000000000001 C 54.899999999999935 84.40000000000002 54.79999999999993 84.40000000000002 54.59999999999994 84.30000000000001 C 54.499999999999936 84.4 54.29999999999994 84.4 54.19999999999994 84.50000000000001 C 53.59999999999994 84.50000000000001 52.89999999999994 84.60000000000001 52.39999999999994 84.70000000000002 C 52.39999999999994 84.50000000000001 52.39999999999994 84.30000000000001 52.19999999999994 84.30000000000001 C 51.89999999999994 84.70000000000002 51.29999999999994 84.20000000000002 50.59999999999994 84.4 C 49.899999999999935 84.2 50.999999999999936 84.7 51.999999999999936 84.9 C 51.9 85 51.8 85.1 51.5 85.2 M 37.5 86.6 C 36.1 85.3 33.2 84.69999999999999 32.7 83.69999999999999 C 31.900000000000002 83.6 30.700000000000003 82.1 29.700000000000003 81.89999999999999 C 30.200000000000003 81.89999999999999 29.800000000000004 81.6 29.700000000000003 81.39999999999999 C 29.500000000000004 81.6 29.300000000000004 81.69999999999999 29.1 81.69999999999999 C 29.1 80.89999999999999 28.3 80.39999999999999 27.6 79.89999999999999 C 28.1 80.19999999999999 28.5 80.39999999999999 29.1 80.49999999999999 C 29.1 80.29999999999998 29.1 80.09999999999998 29.3 80.09999999999998 C 30 80.79999999999998 30.8 81.49999999999999 31.7 82.19999999999997 C 32.9 83.29999999999997 39.1 86.09999999999998 40.2 86.59999999999998 C 40.2 86.59999999999998 40 86.99999999999999 40.1 86.99999999999999 C 40.6 87.29999999999998 41 86.69999999999999 41.1 87.39999999999999 C 39.5 87.6 38.9 86.5 37.5 86.6 M 83.6 63.4 C 83.6 63.4 83.6 63.5 83.6 63.5 C 83.6 63.5 83.6 63.5 83.6 63.5 C 83.5 63.5 83.6 63.4 83.6 63.4 M 43.2 17.1 C 43.1 17.200000000000003 43 17.200000000000003 43 17.200000000000003 C 43 17.1 43.1 17.1 43.2 17.1 M 41.3 17.6 C 41.3 17.7 41.3 17.7 41.3 17.6 C 41.3 17.7 41.3 17.7 41.3 17.6 C 41.3 17.7 41.3 17.6 41.3 17.6 M 34.7 19.7 C 34.7 19.7 34.7 19.7 34.7 19.7 C 34.800000000000004 19.599999999999998 34.800000000000004 19.599999999999998 34.900000000000006 19.599999999999998 C 34.8 19.6 34.7 19.7 34.7 19.7 M 50.7 16.4 C 50.5 16.4 50.400000000000006 16.4 50.300000000000004 16.299999999999997 C 50.400000000000006 16.299999999999997 50.50000000000001 16.299999999999997 50.6 16.299999999999997 C 50.6 16.299999999999997 50.7 16.299999999999997 50.7 16.299999999999997 C 50.7 16.3 50.7 16.3 50.7 16.4 M 52.5 16.6 C 52.4 16.5 52.1 16.400000000000002 51.8 16.400000000000002 C 51.8 16.3 51.9 16.200000000000003 51.9 16.200000000000003 C 52 16.200000000000003 52.1 16.200000000000003 52.199999999999996 16.200000000000003 C 52.199999999999996 16.200000000000003 52.3 16.200000000000003 52.3 16.300000000000004 C 52.3 16.300000000000004 52.3 16.300000000000004 52.3 16.200000000000003 C 52.4 16.200000000000003 52.4 16.200000000000003 52.5 16.200000000000003 C 52.6 16.4 52.7 16.5 52.5 16.6 M 55.8 16.9 C 55.3 17 55 16.799999999999997 54.5 16.5 C 54.8 16.5 55.2 16.6 55.5 16.7 C 55.6 16.7 55.7 16.8 55.8 16.9 M 91.4 31.1 C 91.2 31.200000000000003 91.10000000000001 31.200000000000003 90.9 30.8 C 89.30000000000001 27.400000000000002 86.4 22.5 82.2 18.4 C 78.10000000000001 14.2 72.60000000000001 10.799999999999999 67.60000000000001 8.999999999999998 C 67.9 9.099999999999998 68.30000000000001 9.299999999999999 68.10000000000001 9.499999999999998 C 63.70000000000001 7.799999999999998 59.50000000000001 6.799999999999998 55.50000000000001 6.399999999999999 C 44.7 4.7 33.4 7 24.7 12.6 C 24.8 12.799999999999999 24.8 12.9 24.5 13.1 C 21.3 15.1 16.8 18.6 13.2 23.2 C 9.6 27.799999999999997 6.799999999999999 33.6 5.6 38.8 C 5.7 38.5 5.8 38 6 38.2 C 3.4 48.5 4.1 57.3 7.7 64.9 C 7.9 64.7 7.2 63.7 7.8 63.800000000000004 C 8.2 64.9 8.7 66.10000000000001 9.3 67.2 C 10 68.8 10.8 70.9 11.9 71.4 C 9.1 65.9 7.2 59.6 7 54 C 7.4 54.8 7.3 56.5 7.9 57.2 C 8.1 53.400000000000006 7.2 48.300000000000004 8.5 44.7 C 8.2 46.6 8 49.2 8.2 51.800000000000004 C 8.2 53.7 9.1 59.00000000000001 9.7 59.50000000000001 C 9.6 59.400000000000006 9.6 58.900000000000006 9.7 58.900000000000006 C 10 59.50000000000001 9.299999999999999 59.800000000000004 9.799999999999999 59.900000000000006 C 9.799999999999999 59.7 9.899999999999999 59.7 9.999999999999998 59.7 C 10.999999999999998 61.900000000000006 12.299999999999997 65.3 13.299999999999997 67 C 14.499999999999996 69.2 16.099999999999998 71.2 17.9 73 C 17.9 73.1 18 73.1 18 73.2 C 18.2 73.7 18.9 74.3 19.1 74.7 C 19.200000000000003 74.9 19 75.2 19.1 75.4 C 20.6 78.2 22.8 81 25.5 83.2 C 27.2 85.2 29.9 87.3 33.2 89.10000000000001 C 36.400000000000006 90.80000000000001 40.1 92.2 43.5 93.00000000000001 C 45.9 93.60000000000001 48.8 93.70000000000002 50.6 94.10000000000001 C 53 94.60000000000001 57.2 93.9 59.3 93.50000000000001 C 71.89999999999999 91.60000000000001 84.4 83.00000000000001 90.69999999999999 70.60000000000002 C 97.2 58.1 97 42.8 91.4 31.1" stroke-linecap="round" />
</g>
		<g transform="matrix(1.22 0 0 1.22 72 -45.33)"  >
<path style="stroke: none; stroke-width: 1; stroke-dasharray: none; stroke-linecap: butt; stroke-dashoffset: 0; stroke-linejoin: miter; stroke-miterlimit: 4; fill: rgb(17,17,17); fill-rule: nonzero; opacity: 1;" vector-effect="non-scaling-stroke"  transform=" translate(-95.34, -26)" d="M 2.6 40 L 2.6 12 L 8.16 12 L 8.16 40 L 2.6000000000000005 40 z M 31.96 12 L 37.44 12 L 37.44 40 L 32.92 40 L 18.840000000000003 21.8 L 18.840000000000003 40 L 13.360000000000003 40 L 13.360000000000003 12 L 17.880000000000003 12 L 31.96 30.16 L 31.96 12 z M 64.92 12 L 64.92 16.96 L 55.52 16.96 L 55.52 40 L 50.040000000000006 40 L 50.040000000000006 16.96 L 40.64000000000001 16.96 L 40.64000000000001 12 L 64.92000000000002 12 z M 88.75999999999999 16.96 L 73.47999999999999 16.96 L 73.47999999999999 23.36 L 86.71999999999998 23.36 L 86.71999999999998 28.16 L 73.47999999999999 28.16 L 73.47999999999999 35.04 L 88.71999999999998 35.04 L 88.71999999999998 40 L 68.11999999999998 40 L 68.11999999999998 12 L 88.75999999999998 12 L 88.75999999999998 16.96 z M 110.92 40 L 104.56 30.2 L 98.60000000000001 30.2 L 98.60000000000001 40 L 93.16000000000001 40 L 93.16000000000001 12 L 106.80000000000001 12 C 112.88000000000001 12 116.4 16.68 116.4 21.119999999999997 C 116.4 24.799999999999997 114.24000000000001 28.279999999999998 110.28 29.639999999999997 L 117.24 40 L 110.91999999999999 40 z M 98.6 16.92 L 98.6 25.400000000000002 L 106.44 25.400000000000002 C 109.28 25.400000000000002 111.08 23.44 111.08 21.12 C 111.08 18.880000000000003 109.24 16.92 106.64 16.92 L 98.6 16.92 z M 120.96 40 L 120.96 12 L 126.52 12 L 126.52 40 L 120.96 40 z M 145.28 40.56 C 136.8 40.56 130.56 34.24 130.56 25.96 C 130.56 17.72 136.8 11.440000000000001 145.28 11.440000000000001 C 153.72 11.440000000000001 159.96 17.720000000000002 159.96 25.96 C 159.96 34.24 153.72 40.56 145.28 40.56 z M 145.28 35.480000000000004 C 150.8 35.480000000000004 154.44 31.320000000000004 154.44 25.960000000000004 C 154.44 20.720000000000006 150.8 16.520000000000003 145.28 16.520000000000003 C 139.72 16.520000000000003 136.12 20.720000000000002 136.12 25.96 C 136.12 31.32 139.72 35.480000000000004 145.28 35.480000000000004 z M 181.76 40 L 175.39999999999998 30.2 L 169.43999999999997 30.2 L 169.43999999999997 40 L 163.99999999999997 40 L 163.99999999999997 12 L 177.64 12 C 183.72 12 187.23999999999998 16.68 187.23999999999998 21.119999999999997 C 187.23999999999998 24.799999999999997 185.07999999999998 28.279999999999998 181.11999999999998 29.639999999999997 L 188.07999999999998 40 L 181.76 40 z M 169.44 16.92 L 169.44 25.400000000000002 L 177.28 25.400000000000002 C 180.12 25.400000000000002 181.92 23.44 181.92 21.12 C 181.92 18.880000000000003 180.07999999999998 16.92 177.48 16.92 L 169.44 16.92 z" stroke-linecap="round" />
</g>
		<g transform="matrix(2.9 0 0 2.9 72 22.5)"  >
<path style="stroke: none; stroke-width: 1; stroke-dasharray: none; stroke-linecap: butt; stroke-dashoffset: 0; stroke-linejoin: miter; stroke-miterlimit: 4; fill: rgb(17,17,17); fill-rule: nonzero; opacity: 1;" vector-effect="non-scaling-stroke"  transform=" translate(-41.58, -26)" d="M 8.08 34.96 L 22.04 34.96 L 22.04 40 L 2.599999999999998 40 L 2.599999999999998 12 L 8.079999999999998 12 L 8.079999999999998 34.96 z M 25.560000000000002 40 L 25.560000000000002 12 L 31.12 12 L 31.12 40 L 25.560000000000002 40 z M 56.68 17 L 41.8 17 L 41.8 23.96 L 54.64 23.96 L 54.64 28.880000000000003 L 41.8 28.880000000000003 L 41.8 40 L 36.31999999999999 40 L 36.31999999999999 12 L 56.67999999999999 12 L 56.67999999999999 17 z M 80.56 16.96 L 65.28 16.96 L 65.28 23.36 L 78.52 23.36 L 78.52 28.16 L 65.28 28.16 L 65.28 35.04 L 80.52 35.04 L 80.52 40 L 59.919999999999995 40 L 59.919999999999995 12 L 80.56 12 L 80.56 16.96 z" stroke-linecap="round" />
</g>
</g>
</g>
</svg>