<?xml version="1.0" encoding="UTF-8" standalone="no" ?>
<!DOCTYPE svg PUBLIC "-//W3C//DTD SVG 1.1//EN" "http://www.w3.org/Graphics/SVG/1.1/DTD/svg11.dtd">
<svg xmlns="http://www.w3.org/2000/svg" xmlns:xlink="http://www.w3.org/1999/xlink" version="1.1" width="400" height="400" viewBox="0 0 400 400" xml:space="preserve">
<desc>Created with Fabric.js 5.2.4</desc>
<defs>
</defs>
<g transform="matrix(1 0 0 1 200 200)" id="215d65e3-5d32-481a-8b41-1b590cf8f184"  >
<rect style="stroke: none; stroke-width: 1; stroke-dasharray: none; stroke-linecap: butt; stroke-dashoffset: 0; stroke-linejoin: miter; stroke-miterlimit: 4; fill: rgb(255,255,255); fill-rule: nonzero; opacity: 1; visibility: hidden;" vector-effect="non-scaling-stroke"  x="-200" y="-200" rx="0" ry="0" width="400" height="400" />
</g>
<g transform="matrix(Infinity NaN NaN Infinity 0 0)" id="0b901323-84f6-490d-867a-e61b5771f687"  >
</g>
<g transform="matrix(0.37 0 0 0.37 200 200)"  >
<g style="" vector-effect="non-scaling-stroke"   >
		<g transform="matrix(1.3 0 0 1.3 -132.3 0)"  >
<path style="stroke: none; stroke-width: 1; stroke-dasharray: none; stroke-linecap: butt; stroke-dashoffset: 0; stroke-linejoin: miter; stroke-miterlimit: 4; fill: rgb(17,17,17); fill-rule: nonzero; opacity: 1;" vector-effect="non-scaling-stroke"  transform=" translate(-50.3, -49.14)" d="M 48.3 88.1 C 39.8 88.1 31.599999999999998 84.39999999999999 25.999999999999996 77.5 C 21.599999999999994 72.1 17.699999999999996 67.5 14.399999999999997 63.7 C 10.699999999999996 59.5 9.099999999999998 54 9.999999999999996 48.5 C 10.899999999999997 43 14.099999999999996 38.2 18.999999999999996 35.4 L 18.999999999999996 35.4 L 58 12.7 C 63.3 9.6 69.7 9.399999999999999 75.2 11.899999999999999 C 80.7 14.499999999999998 84.60000000000001 19.599999999999998 85.60000000000001 25.599999999999998 L 90.60000000000001 56 C 91.9 63.9 88.00000000000001 71.7 80.9 75.4 C 75.80000000000001 78.10000000000001 68.9 81.4 60.50000000000001 85.30000000000001 C 56.6 87.2 52.4 88.1 48.3 88.1 z M 20.9 38.8 C 17.099999999999998 41 14.599999999999998 44.699999999999996 13.899999999999999 49 C 13.2 53.3 14.499999999999998 57.7 17.4 60.9 C 20.799999999999997 64.7 24.7 69.4 29.099999999999998 74.8 C 36.3 83.6 48.5 86.39999999999999 58.8 81.6 C 67.1 77.69999999999999 73.89999999999999 74.39999999999999 79 71.69999999999999 C 84.6 68.79999999999998 87.6 62.69999999999999 86.6 56.499999999999986 L 81.6 26.099999999999987 C 80.8 21.299999999999986 77.8 17.399999999999988 73.5 15.399999999999988 C 69.1 13.299999999999988 64.2 13.599999999999987 60 15.999999999999988 L 20.9 38.8 L 20.9 38.8 z" stroke-linecap="round" />
</g>
		<g transform="matrix(0.72 0 0 0.72 63 0.52)"  >
<path style="stroke: none; stroke-width: 1; stroke-dasharray: none; stroke-linecap: butt; stroke-dashoffset: 0; stroke-linejoin: miter; stroke-miterlimit: 4; fill: rgb(17,17,17); fill-rule: nonzero; opacity: 1;" vector-effect="non-scaling-stroke"  transform=" translate(-173.62, -24.98)" d="M 17.4 40.68 Q 13.2 40.68 10.18 39.22 Q 7.16 37.76 5.58 35 Q 4 32.24 4 28.4 L 4 10.16 L 8.32 10.16 L 8.32 28.4 Q 8.32 32.239999999999995 10.68 34.28 Q 13.04 36.32000000000001 17.4 36.32 Q 21.759999999999998 36.31999999999999 24.119999999999997 34.28 Q 26.479999999999997 32.24000000000001 26.479999999999997 28.400000000000002 L 26.479999999999997 10.160000000000004 L 30.799999999999997 10.160000000000004 L 30.799999999999997 28.400000000000002 Q 30.799999999999997 32.24 29.22 35 Q 27.64 37.76 24.619999999999997 39.22 Q 21.599999999999994 40.68 17.4 40.68 z M 43.56 14.52 L 43.56 24.439999999999998 Q 44.800000000000004 23.72 46.32 23.479999999999997 Q 47.44 23.279999999999998 49.2 23.279999999999998 L 54.88 23.279999999999998 Q 57.24 23.279999999999998 58.56 22.199999999999996 Q 59.96 21.039999999999996 59.96 18.719999999999995 Q 59.96 16.519999999999996 58.480000000000004 15.439999999999996 Q 57.2 14.519999999999996 54.88 14.519999999999996 L 43.56 14.519999999999996 z M 56.32000000000001 35.28 L 52.68000000000001 27.64 L 49.20000000000001 27.64 Q 47.56000000000001 27.64 46.32000000000001 27.84 Q 44.800000000000004 28.12 43.56000000000001 28.8 L 43.56000000000001 40 L 39.20000000000001 40 L 39.20000000000001 10.16 L 54.88000000000001 10.16 Q 57.64000000000001 10.16 59.76000000000001 11.2 Q 61.88000000000002 12.239999999999998 63.04000000000001 14.16 Q 64.28000000000002 16.2 64.28000000000002 18.96 Q 64.28000000000002 22.32 62.48000000000002 24.48 Q 60.68000000000002 26.64 57.40000000000002 27.48 L 59.72000000000002 32.24 Q 60.72000000000002 33.72 61.28000000000002 34.32 Q 61.96000000000002 35.08 62.58000000000002 35.34 Q 63.20000000000002 35.60000000000001 64.20000000000002 35.6 L 64.64000000000001 35.6 L 65.60000000000001 35.56 L 65.60000000000001 40 Q 63.28000000000001 40 62.16000000000001 39.84 Q 60.28000000000001 39.52 58.96000000000001 38.6 Q 57.400000000000006 37.480000000000004 56.32000000000001 35.28 z M 77.12 14.559999999999999 L 77.12 23.68 Q 78.36 22.96 79.92 22.68 Q 81.08 22.48 82.8 22.48 L 87.92 22.48 Q 90 22.48 91.18 21.44 Q 92.36000000000001 20.400000000000002 92.36000000000001 18.36 Q 92.36000000000001 14.559999999999999 87.92000000000002 14.559999999999999 L 77.12000000000002 14.559999999999999 z M 77.12 28.119999999999997 L 77.12 35.64 L 88.36 35.64 Q 89.67999999999999 35.64 90.88 35.160000000000004 Q 92.19999999999999 34.68000000000001 92.96 33.760000000000005 Q 93.83999999999999 32.68000000000001 93.83999999999999 31.280000000000005 Q 93.83999999999999 28.880000000000006 91.96 27.800000000000004 Q 90.47999999999999 26.920000000000005 87.91999999999999 26.920000000000005 L 82.79999999999998 26.920000000000005 Q 79.35999999999999 26.920000000000005 77.11999999999998 28.120000000000005 z M 98.16000000000001 31.84 Q 98.16000000000001 34.64 96.60000000000001 36.6 Q 95.24000000000001 38.32 92.76 39.2 Q 90.56 40 87.92 40 L 72.8 40 L 72.8 10.16 L 87.92 10.16 Q 90.48 10.16 92.46000000000001 11.120000000000001 Q 94.44000000000001 12.080000000000002 95.56 13.88 Q 96.72 15.760000000000002 96.72 18.32 Q 96.72 20.28 96.02 21.82 Q 95.32 23.36 94.03999999999999 24.2 Q 95.75999999999999 25 96.88 26.84 Q 98.16 28.96 98.16 31.84 z M 114.68 13.32 L 113.04 9.64 L 117.84 9.64 L 132.2 40 L 127.32 40 L 125.36 35.64 L 116.28 35.64 Q 113.72 35.64 111.68 36.12 Q 109.88000000000001 36.559999999999995 108.68 37.279999999999994 Q 107.60000000000001 37.919999999999995 107.24000000000001 38.599999999999994 L 106.48 39.99999999999999 L 101.76 39.99999999999999 z M 117.88000000000001 31.240000000000002 L 123.4 31.240000000000002 L 116.88000000000001 18.64 L 110.28000000000002 32.92 Q 111.16000000000001 32.160000000000004 112.96000000000002 31.720000000000002 Q 115.00000000000003 31.240000000000002 117.88000000000002 31.240000000000002 z M 138.68 14.36 L 135.20000000000002 10.16 L 140.84 10.16 L 160 32.96 L 160 10.16 L 164.4 10.16 L 164.4 40 L 160.08 40 L 142.96 19.48 L 142.96 40 L 138.68 40 L 138.68 14.36 z M 190 14.559999999999999 L 190 35.64 L 196.76 35.64 Q 199.56 35.64 201.79999999999998 34.2 Q 203.92 32.800000000000004 205.11999999999998 30.440000000000005 Q 206.31999999999996 28.080000000000005 206.31999999999996 25.280000000000005 Q 206.31999999999996 22.360000000000007 205.17999999999998 19.920000000000005 Q 204.04 17.480000000000004 201.92 16.040000000000006 Q 199.64 14.560000000000006 196.67999999999998 14.560000000000006 L 189.99999999999997 14.560000000000006 z M 183.36 14.559999999999999 L 181.44000000000003 10.159999999999998 L 196.64000000000001 10.159999999999998 Q 200.60000000000002 10.159999999999998 203.88000000000002 12.2 Q 207.04000000000002 14.16 208.88000000000002 17.56 Q 210.72000000000003 20.959999999999997 210.72000000000003 24.96 Q 210.72000000000003 27.96 209.54000000000002 30.900000000000002 Q 208.36 33.84 206.28000000000003 36.04 Q 204.28000000000003 38.2 202.00000000000003 39.12 Q 199.80000000000004 40 196.76000000000002 40 L 185.72000000000003 40 L 185.72000000000003 14.559999999999999 L 183.36 14.559999999999999 z M 221.88 28.04 L 221.88 35.64 L 240.28 35.64 L 240.28 40 L 217.52 40 L 217.52 10.16 L 238.52 10.16 L 238.52 14.56 L 221.88 14.56 L 221.88 23.6 Q 223.12 22.880000000000003 224.64 22.64 Q 225.76 22.44 227.51999999999998 22.44 L 234.04 22.44 L 234.04 26.880000000000003 L 227.51999999999998 26.880000000000003 Q 225.88 26.880000000000003 224.64 27.080000000000002 Q 223.11999999999998 27.360000000000003 221.88 28.040000000000003 z M 272.84 14 L 270.03999999999996 17.28 Q 268.4 15.600000000000001 266.11999999999995 14.64 Q 263.8399999999999 13.68 261.31999999999994 13.68 Q 258.03999999999996 13.68 255.33999999999995 15.16 Q 252.63999999999993 16.64 251.11999999999995 19.2 Q 249.55999999999995 21.88 249.55999999999995 25.16 Q 249.55999999999995 28.28 251.23999999999995 30.92 Q 252.83999999999995 33.4 255.53999999999996 34.86 Q 258.24 36.32 261.35999999999996 36.32 Q 264.23999999999995 36.32 266.71999999999997 35.08 Q 269.2 33.839999999999996 270.84 31.639999999999997 L 273.52 35.279999999999994 Q 271.24 37.839999999999996 268.06 39.25999999999999 Q 264.88 40.679999999999986 261.32 40.67999999999999 Q 256.88 40.67999999999999 253.16 38.519999999999996 Q 249.52 36.44 247.44 32.8 Q 245.28 29.08 245.28 24.639999999999997 Q 245.28 20.359999999999996 247.56 16.759999999999998 Q 249.72 13.319999999999999 253.42000000000002 11.299999999999997 Q 257.12 9.279999999999996 261.36 9.279999999999998 Q 264.68 9.279999999999998 267.68 10.559999999999997 Q 270.6 11.759999999999996 272.84000000000003 13.999999999999996 z M 305.71999999999997 24.880000000000003 Q 305.71999999999997 21.680000000000003 304.08 19.080000000000002 Q 302.52 16.560000000000002 299.82 15.120000000000001 Q 297.12 13.68 293.96 13.680000000000001 Q 290.68 13.680000000000001 287.97999999999996 15.160000000000002 Q 285.2799999999999 16.64 283.75999999999993 19.200000000000003 Q 282.19999999999993 21.880000000000003 282.19999999999993 25.160000000000004 Q 282.19999999999993 28.280000000000005 283.87999999999994 30.92 Q 285.47999999999996 33.4 288.17999999999995 34.86 Q 290.87999999999994 36.32 294.0199999999999 36.32 Q 297.1599999999999 36.32 299.8599999999999 34.8 Q 302.5599999999999 33.279999999999994 304.1199999999999 30.72 Q 305.7199999999999 28.04 305.7199999999999 24.88 z M 310.03999999999996 25.119999999999997 Q 310.03999999999996 29.439999999999998 307.79999999999995 33.08 Q 305.63999999999993 36.559999999999995 301.93999999999994 38.62 Q 298.23999999999995 40.68 293.9599999999999 40.68 Q 289.5199999999999 40.68 285.7999999999999 38.519999999999996 Q 282.1599999999999 36.44 280.07999999999987 32.8 Q 277.91999999999985 29.08 277.91999999999985 24.639999999999997 Q 277.91999999999985 20.359999999999996 280.1999999999998 16.759999999999998 Q 282.35999999999984 13.319999999999999 286.05999999999983 11.299999999999997 Q 289.7599999999998 9.279999999999996 293.99999999999983 9.279999999999998 Q 298.35999999999984 9.279999999999998 302.0799999999998 11.399999999999999 Q 305.7199999999998 13.479999999999999 307.8399999999998 17.04 Q 310.0399999999998 20.759999999999998 310.0399999999998 25.119999999999997 z M 321.2 14.52 L 321.2 24.439999999999998 Q 322.44 23.72 323.96 23.479999999999997 Q 325.08 23.279999999999998 326.84 23.279999999999998 L 332.52 23.279999999999998 Q 334.88 23.279999999999998 336.2 22.199999999999996 Q 337.59999999999997 21.039999999999996 337.59999999999997 18.719999999999995 Q 337.59999999999997 16.519999999999996 336.11999999999995 15.439999999999996 Q 334.84 14.519999999999996 332.5199999999999 14.519999999999996 L 321.19999999999993 14.519999999999996 z M 333.96 35.28 L 330.32 27.64 L 326.84 27.64 Q 325.2 27.64 323.96 27.84 Q 322.44 28.12 321.2 28.8 L 321.2 40 L 316.84 40 L 316.84 10.16 L 332.52 10.16 Q 335.28 10.16 337.4 11.2 Q 339.52 12.239999999999998 340.67999999999995 14.16 Q 341.91999999999996 16.2 341.91999999999996 18.96 Q 341.91999999999996 22.32 340.11999999999995 24.48 Q 338.31999999999994 26.64 335.03999999999996 27.48 L 337.35999999999996 32.24 Q 338.35999999999996 33.72 338.91999999999996 34.32 Q 339.59999999999997 35.08 340.21999999999997 35.34 Q 340.84 35.60000000000001 341.84 35.6 L 342.28 35.6 L 343.23999999999995 35.56 L 343.23999999999995 40 Q 340.91999999999996 40 339.79999999999995 39.84 Q 337.91999999999996 39.52 336.59999999999997 38.6 Q 335.03999999999996 37.480000000000004 333.96 35.28 z" stroke-linecap="round" />
</g>
</g>
</g>
<g transform="matrix(NaN NaN NaN NaN 0 0)"  >
<g style=""   >
</g>
</g>
<g transform="matrix(NaN NaN NaN NaN 0 0)"  >
<g style=""   >
</g>
</g>
</svg>